<!-- Generator: Adobe Illustrator 24.0.3, SVG Export Plug-In  -->
<svg version="1.1" xmlns="http://www.w3.org/2000/svg" xmlns:xlink="http://www.w3.org/1999/xlink" x="0px" y="0px" width="134.9px"
	 height="168px" viewBox="0 0 134.9 168" style="enable-background:new 0 0 134.9 168;" xml:space="preserve">
<style type="text/css">
	.st0{fill:#FFFFFF;}
	.st1{fill:url(#SVGID_1_);}
	.st2{fill:url(#SVGID_2_);}
</style>
<defs>
</defs>
<g>
	

	<g>
		<g>
			<path class="st0" d="M80.1,7.5c4.7,0,8.7,3.6,9.2,8.3l6.4,60h16.2c3.6,0,6.8,2.1,8.4,5.3c1.5,3.2,1.1,7.1-1.2,9.8l-44.7,54.4
				c-1.8,2.1-4.4,3.4-7.1,3.4c-2.8,0-5.4-1.2-7.1-3.4L15.3,90.9c-2.3-2.8-2.7-6.6-1.2-9.8c1.5-3.2,4.8-5.3,8.4-5.3h16.2l6.4-60
				c0.5-4.7,4.5-8.3,9.2-8.3H80.1z"/>
			<linearGradient id="SVGID_1_" gradientUnits="userSpaceOnUse" x1="67.163" y1="139.3514" x2="67.163" y2="16.7278">
				<stop  offset="4.878050e-03" style="stop-color:#69AB58"/>
				<stop  offset="0.1556" style="stop-color:#84BC61"/>
				<stop  offset="0.3266" style="stop-color:#9ACB68"/>
				<stop  offset="0.5121" style="stop-color:#AAD56D"/>
				<stop  offset="0.7206" style="stop-color:#B4DB70"/>
				<stop  offset="1" style="stop-color:#B7DD71"/>
			</linearGradient>
			<polygon class="st1" points="22.5,85 67.2,139.4 111.9,85 87.4,85 80.1,16.7 54.2,16.7 47,85 			"/>
		</g>
	</g>
</g>
</svg>
