<!-- Generator: Adobe Illustrator 24.0.3, SVG Export Plug-In  -->
<svg version="1.1" xmlns="http://www.w3.org/2000/svg" xmlns:xlink="http://www.w3.org/1999/xlink" x="0px" y="0px" width="159.7px"
	 height="147.7px" viewBox="0 0 159.7 147.7" style="enable-background:new 0 0 159.7 147.7;" xml:space="preserve">
<style type="text/css">
	.st0{fill:#D3B9B6;}
	.st1{fill:#2C1D1B;}
	.st2{fill:#422C2A;}
	.st3{fill:#FFFFFF;}
	.st4{fill:#BA9895;}
	.st5{fill:#C6A6A5;}
	.st6{fill:#41A5A2;}
	.st7{fill:#53B7B7;}
	.st8{fill:#63C6C4;}
	.st9{fill:#2D8E89;}
	.st10{fill:#A57E7C;}
</style>
<defs>
</defs>
<g>
	<rect x="10.1" y="36.7" transform="matrix(0.866 -0.5 0.5 0.866 -27.0848 14.866)" class="st0" width="8.2" height="42.5"/>
	<g>
		<g>
			<path class="st1" d="M109.8,142.5c0-3.3-2-7.2-4.5-8.7c-0.6-0.4-1.4-0.6-2-0.6c-0.5,0-1.7,0-2.9,0.8c-1.4,0.9-1.6,2.9-1.6,2.9
				l5.1,10.5c0,0,1.6,0.8,3.3-0.1c1-0.6,1.7-1.5,2-2c0.1-0.2,0.3-0.7,0.4-0.9C109.7,143.8,109.8,143.2,109.8,142.5z"/>
			<path class="st2" d="M98.6,138.4c0,3.3,2,7.2,4.5,8.7c2.5,1.4,4.5-0.1,4.5-3.4c0-3.3-2-7.2-4.5-8.7
				C100.6,133.5,98.6,135.1,98.6,138.4z"/>
			<path class="st3" d="M100.3,139.7c0,1.8,1.1,3.9,2.5,4.7c1.4,0.8,2.5,0,2.5-1.9s-1.1-3.9-2.5-4.7
				C101.4,137.1,100.3,137.9,100.3,139.7z"/>
			<path class="st2" d="M100.8,140.5c0,1.1,0.7,2.3,1.5,2.8c0.8,0.5,1.5,0,1.5-1.1c0-1.1-0.7-2.3-1.5-2.8
				C101.4,139,100.8,139.5,100.8,140.5z"/>
		</g>
		<g>
			<path class="st4" d="M101.8,111.6l-1-0.6c-1-0.6-1.9-0.6-2.7-0.2l0,0l-1.1,0.5l0.1,0.5c-0.3,0.6-0.5,1.4-0.5,2.4V137
				c0,3,1.9,6.6,4.1,7.9l1,0.6c0.5,0.3,1.1,0.5,1.6,0.5l0.1,0.3l0.8-0.4c0.1,0,0.2-0.1,0.3-0.2l0,0l0,0c0.8-0.5,1.4-1.7,1.4-3.3
				v-22.9C106,116.5,104.1,112.9,101.8,111.6z"/>
			<path class="st0" d="M99.7,145.5l1,0.6c2.3,1.3,4.1-0.1,4.1-3.1v-22.9c0-3-1.9-6.6-4.1-7.9l-1-0.6c-2.3-1.3-4.1,0.1-4.1,3.1v22.9
				C95.5,140.6,97.4,144.2,99.7,145.5z"/>
		</g>
	</g>
	<g>
		<g>
			<path class="st1" d="M34.2,99.1c0-3.3-2-7.2-4.5-8.7c-0.6-0.4-1.4-0.6-2-0.6c-0.5,0-1.7,0-2.9,0.8c-1.4,0.9-1.6,2.9-1.6,2.9
				l5.1,10.5c0,0,1.6,0.8,3.3-0.1c1-0.6,1.7-1.5,2-2c0.1-0.2,0.3-0.7,0.4-0.9C34.1,100.5,34.2,99.8,34.2,99.1z"/>
			<path class="st2" d="M23,95c0,3.3,2,7.2,4.5,8.7c2.5,1.4,4.5-0.1,4.5-3.4c0-3.3-2-7.2-4.5-8.7C25,90.2,23,91.7,23,95z"/>
			<path class="st3" d="M24.7,96.4c0,1.8,1.1,3.9,2.5,4.7c1.4,0.8,2.5,0,2.5-1.9c0-1.8-1.1-3.9-2.5-4.7
				C25.8,93.7,24.7,94.5,24.7,96.4z"/>
			<path class="st2" d="M25.2,97.2c0,1.1,0.7,2.3,1.5,2.8c0.8,0.5,1.5,0,1.5-1.1c0-1.1-0.7-2.3-1.5-2.8
				C25.8,95.6,25.2,96.1,25.2,97.2z"/>
		</g>
		<g>
			<path class="st4" d="M26.2,68.2l-1-0.6c-1-0.6-1.9-0.6-2.7-0.2l0,0l-1.1,0.5l0.1,0.5c-0.3,0.6-0.5,1.4-0.5,2.4v22.9
				c0,3,1.9,6.6,4.1,7.9l1,0.6c0.5,0.3,1.1,0.5,1.6,0.5l0.1,0.3l0.8-0.4c0.1,0,0.2-0.1,0.3-0.2l0,0l0,0c0.8-0.5,1.4-1.7,1.4-3.3
				V76.2C30.4,73.1,28.5,69.5,26.2,68.2z"/>
			<path class="st0" d="M24.1,102.2l1,0.6c2.3,1.3,4.1-0.1,4.1-3.1V76.7c0-3-1.9-6.6-4.1-7.9l-1-0.6c-2.3-1.3-4.1,0.1-4.1,3.1v22.9
				C19.9,97.3,21.8,100.8,24.1,102.2z"/>
		</g>
	</g>
	<g>
		<g>
			<path class="st1" d="M153,117.7c0-3.3-2-7.2-4.5-8.7c-0.6-0.4-1.4-0.6-2-0.6c-0.5,0-1.7,0-2.9,0.8c-1.4,0.9-1.6,2.9-1.6,2.9
				l5.1,10.5c0,0,1.6,0.8,3.3-0.1c1-0.6,1.7-1.5,2-2c0.1-0.2,0.3-0.7,0.4-0.9C152.9,119.1,153,118.4,153,117.7z"/>
			<path class="st2" d="M141.8,113.6c0,3.3,2,7.2,4.5,8.7c2.5,1.4,4.5-0.1,4.5-3.4c0-3.3-2-7.2-4.5-8.7S141.8,110.3,141.8,113.6z"/>
			<path class="st3" d="M143.5,115c0,1.8,1.1,3.9,2.5,4.7c1.4,0.8,2.5,0,2.5-1.9c0-1.8-1.1-3.9-2.5-4.7
				C144.7,112.3,143.5,113.1,143.5,115z"/>
			<path class="st2" d="M144,115.8c0,1.1,0.7,2.3,1.5,2.8c0.8,0.5,1.5,0,1.5-1.1c0-1.1-0.7-2.3-1.5-2.8
				C144.6,114.2,144,114.7,144,115.8z"/>
		</g>
		<g>
			<path class="st4" d="M145.1,86.8l-1-0.6c-1-0.6-1.9-0.6-2.7-0.2l0,0l-1.1,0.5l0.1,0.5c-0.3,0.6-0.5,1.4-0.5,2.4v22.9
				c0,3,1.9,6.6,4.1,7.9l1,0.6c0.5,0.3,1.1,0.5,1.6,0.5l0.1,0.3l0.8-0.4c0.1,0,0.2-0.1,0.3-0.2l0,0l0,0c0.8-0.5,1.4-1.7,1.4-3.3
				V94.8C149.2,91.7,147.3,88.2,145.1,86.8z"/>
			<path class="st0" d="M142.9,120.8l1,0.6c2.3,1.3,4.1-0.1,4.1-3.1V95.3c0-3-1.9-6.6-4.1-7.9l-1-0.6c-2.3-1.3-4.1,0.1-4.1,3.1v22.9
				C138.8,115.9,140.6,119.4,142.9,120.8z"/>
		</g>
	</g>
	<g>
		<polygon class="st0" points="27.6,82 27.6,90.3 110.8,138.4 110.8,130.1 		"/>
		<polygon class="st5" points="154.7,104.8 110.8,130.1 110.8,138.4 154.7,113 		"/>
	</g>
	<g>
		<path class="st0" d="M77.2,28.4l2.5-1.5c0.1-0.1,0.2-0.1,0.3-0.2l0,0l0,0c1.1-0.5,2.6-0.4,4.2,0.5l31.5,18.2
			c3.7,2.1,6.7,7.9,6.7,12.9v17c0,2.7-0.9,4.6-2.3,5.4l0,0l-0.1,0.1c0,0,0,0,0,0l-2.7,1.5l-1.9-0.8l1-0.8c-0.2-0.1-0.5-0.2-0.7-0.4
			L84.3,62.1c-3.7-2.1-6.7-7.9-6.7-12.9v-17c0-1.3,0.2-2.4,0.6-3.3L77.2,28.4z M84.5,39.6l31,17.9c1.6,0.9,2.9-0.1,2.9-2.2
			c0-2.1-1.3-4.6-2.9-5.6l-31-17.9c-1.6-0.9-2.9,0.1-2.9,2.2C81.6,36.2,82.9,38.7,84.5,39.6z"/>
		<path class="st4" d="M113.1,46.9L81.6,28.7c-3.7-2.1-6.7,0.2-6.7,5.1v17c0,4.9,3,10.7,6.7,12.9l31.5,18.2c3.7,2.1,6.7-0.2,6.7-5.1
			v-17C119.8,54.8,116.8,49.1,113.1,46.9z M112.9,59.1l-31-17.9c-1.6-0.9-2.9-3.4-2.9-5.6c0-2.1,1.3-3.1,2.9-2.2l31,17.9
			c1.6,0.9,2.9,3.4,2.9,5.6C115.8,59,114.5,60,112.9,59.1z"/>
	</g>
	<g>
		<path class="st6" d="M156.9,93.8L57.4,46.6c-2.4-1.4-6.7-1.3-9.5,0.3L26.6,68.5c0,0,1.6,13,1.6,15l80.3,47
			c2.4,1.4,6.7,1.3,9.5-0.3l36.6-20.8c1.7-0.9,2.5-2.2,2.3-3.3h0V93.8z"/>
		<path class="st6" d="M70.6,50.7L28.1,83.5L1.4,38.5c-2.9-4.9-1.2-11.2,3.7-14L38.8,5c3.3-1.9,7.6-0.7,9.3,2.7L70.6,50.7z"/>
		<path class="st7" d="M31.5,73.3l76.9,45c2.4,1.4,6.7,1.3,9.5-0.3l36.6-20.7c2.8-1.6,3.2-4.1,0.7-5.5L57.4,34.5
			C55,33.1,31.5,73.3,31.5,73.3z"/>
		<path class="st8" d="M77.7,46.6L31.5,73.3l-23-38.9c-2.9-4.9-1.2-11.2,3.7-14L45.9,0.9c3.3-1.9,7.6-0.7,9.3,2.7L77.7,46.6z"/>
	</g>
	<g>
		<path class="st0" d="M157.3,79.9l-2.5-1.5c-0.1-0.1-0.2-0.1-0.3-0.2l0,0l0,0c-1.1-0.5-2.6-0.4-4.2,0.5l-31.5,18.2
			c-3.7,2.1-6.7,7.9-6.7,12.9v17c0,2.7,0.9,4.6,2.3,5.4l0,0l0.1,0.1c0,0,0,0,0,0l2.7,1.5l1.9-0.8l-1-0.8c0.2-0.1,0.5-0.2,0.7-0.4
			l31.5-18.2c3.7-2.1,6.7-7.9,6.7-12.9v-17c0-1.3-0.2-2.4-0.6-3.3L157.3,79.9z M150.1,91.1l-31,17.9c-1.6,0.9-2.9-0.1-2.9-2.2
			c0-2.1,1.3-4.6,2.9-5.6l31-17.9c1.6-0.9,2.9,0.1,2.9,2.2C153,87.7,151.7,90.2,150.1,91.1z"/>
		<path class="st4" d="M121.5,98.4L153,80.3c3.7-2.1,6.7,0.2,6.7,5.1v17c0,4.9-3,10.7-6.7,12.9l-31.5,18.2c-3.7,2.1-6.7-0.2-6.7-5.1
			v-17C114.7,106.4,117.8,100.6,121.5,98.4z M121.7,110.6l31-17.9c1.6-0.9,2.9-3.4,2.9-5.6c0-2.1-1.3-3.1-2.9-2.2l-31,17.9
			c-1.6,0.9-2.9,3.4-2.9,5.6C118.8,110.5,120.1,111.5,121.7,110.6z"/>
	</g>
	<g>
		<path class="st0" d="M25.3,58.4l2.5-1.5c0.1-0.1,0.2-0.1,0.3-0.2l0,0l0,0c1.1-0.5,2.6-0.4,4.2,0.5l31.5,18.2
			c3.7,2.1,6.7,7.9,6.7,12.9v17c0,2.7-0.9,4.6-2.3,5.4l0,0l-0.1,0.1c0,0,0,0,0,0l-2.7,1.5l-1.9-0.8l1-0.8c-0.2-0.1-0.5-0.2-0.7-0.4
			L32.4,92.2c-3.7-2.1-6.7-7.9-6.7-12.9v-17c0-1.3,0.2-2.4,0.6-3.3L25.3,58.4z M32.6,69.6l31,17.9c1.6,0.9,2.9-0.1,2.9-2.2
			s-1.3-4.6-2.9-5.6l-31-17.9C31,61,29.7,62,29.7,64.1C29.7,66.2,31,68.7,32.6,69.6z"/>
		<path class="st4" d="M61.2,77L29.7,58.8C26,56.6,23,58.9,23,63.9v17c0,4.9,3,10.7,6.7,12.9l31.5,18.2c3.7,2.1,6.7-0.2,6.7-5.1v-17
			C68,84.9,64.9,79.1,61.2,77z M61,89.1L30,71.2c-1.6-0.9-2.9-3.4-2.9-5.6c0-2.1,1.3-3.1,2.9-2.2l31,17.9c1.6,0.9,2.9,3.4,2.9,5.6
			C63.9,89,62.6,90,61,89.1z"/>
	</g>
	<polygon class="st3" points="145.9,102.4 155.3,97 155.3,94.7 145.9,100.1 	"/>
	<path class="st2" d="M98.1,139.5c0,1.3,0.8,2.8,1.8,3.4s1.8,0,1.8-1.4c0-1.3-0.8-2.8-1.8-3.4S98.1,138.1,98.1,139.5z"/>
	<path class="st2" d="M23,96c0,1.3,0.8,2.8,1.8,3.4c1,0.6,1.8,0,1.8-1.4c0-1.3-0.8-2.8-1.8-3.4S23,94.7,23,96z"/>
	<path class="st6" d="M89.8,98c0,0,7.1-4.3,11.5-5.7s11.6-3.7,11.6-3.7s-6.7,4.1-11.6,5.9C96.3,96.2,89.8,98,89.8,98z"/>
	<path class="st6" d="M113.9,92.3c0,0-4.9,7-6.9,11.4c-2.1,4.3-3,8.6-3,8.6s2.4-3.9,5.4-9.4C112.4,97.5,113.9,92.3,113.9,92.3z"/>
	<path class="st6" d="M89.8,62c0,0-1.9,3.6-2.4,8.7c-0.6,5,0,8.8,0,8.8s2.4-6.2,2.4-9.9C89.8,65.8,89.8,62,89.8,62z"/>
	<path class="st6" d="M82.4,60.7c0,0-4.1,1.9-7.5,4.7S68,73.3,68,73.3s6.6-4.7,9.3-7.2C79.9,63.5,82.4,60.7,82.4,60.7z"/>
	<path class="st6" d="M65,61.5c0,0,4.5-1.2,8.8-2.1c4.3-0.9,7.8-1.5,7.8-1.5s-4.3-1-9.1,0.1C67.6,59.1,65,61.5,65,61.5z"/>
	<path class="st7" d="M45,38.4c0,0-2.5,5-3.7,10c-1,4.1-1.6,11.1-1.6,11.1s2.3-6.9,3.4-10.5C44.3,45.3,45,38.4,45,38.4z"/>
	<path class="st7" d="M52.5,38.4c0,0,4.1,2.6,9.1,4.7c5,2.2,9,1.6,9,1.6s-4.9-2-9.1-3.5C57.3,39.7,52.5,38.4,52.5,38.4z"/>
	<path class="st7" d="M42.4,38.4c0,0-6.9,3.4-10.3,6.4c-3.5,2.9-5.4,6.1-5.4,6.1s4.5-3.2,7.1-5.2C36.4,43.6,42.4,38.4,42.4,38.4z"/>
	<g>
		<path class="st9" d="M104.3,124.5c-0.4-0.6-0.8-1.2-1-1.8c-0.2-0.6-0.2-1.2-0.3-1.9c0-0.1-0.2-0.1-0.2,0c-0.9,1.3-0.1,3.4,1.2,4
			C104.2,124.8,104.4,124.7,104.3,124.5z"/>
		<path class="st9" d="M101.6,120.4c-0.5-0.1-1,0-1.5,0.1c-0.5,0-1,0.1-1.4,0.2c-0.1,0-0.2,0.2,0,0.3c0.8,0.4,2.2,0.4,3-0.1
			C101.8,120.7,101.8,120.4,101.6,120.4z"/>
		<path class="st9" d="M3.6,29.2c-0.7,0.6-1.2,1.6-1.5,2.5c-0.2,0.7-0.6,1.9-0.2,2.6c0.1,0.1,0.2,0.1,0.3,0c0.4-0.7,0.2-1.6,0.4-2.3
			c0.3-1,0.7-1.8,1.2-2.6C3.8,29.2,3.7,29.1,3.6,29.2z"/>
		<path class="st9" d="M4.4,32.6c-0.4,0.3-0.7,0.7-1,1.1c-0.3,0.4-0.7,0.8-0.8,1.3c-0.1,0.2,0.2,0.4,0.3,0.3c0.4-0.3,0.7-0.7,1-1.2
			c0.3-0.4,0.6-0.9,0.8-1.4C4.7,32.7,4.6,32.5,4.4,32.6z"/>
		<path class="st9" d="M8,41.4c-0.5-0.5-1-0.8-1.6-1.2c-0.6-0.4-1.2-0.9-1.8-1.4c-0.1-0.1-0.4,0-0.3,0.2c0.8,1.1,2,2.4,3.5,2.6
			C8,41.6,8.1,41.5,8,41.4z"/>
		<path class="st9" d="M9.9,45.8c-0.1-0.8,0-1.5-0.2-2.3c0-0.1-0.1-0.1-0.2,0c-0.6,1.4-0.4,3.7,0.3,5c0.1,0.2,0.3,0.1,0.3-0.1
			C10.1,47.5,9.9,46.7,9.9,45.8z"/>
		<path class="st9" d="M20.7,64.5c-0.2-0.4-0.7-0.7-1.1-1c-0.5-0.3-0.9-0.7-1.5-0.9c-0.2-0.1-0.4,0.1-0.2,0.3
			c0.4,0.5,0.8,0.8,1.3,1.2c0.4,0.3,0.7,0.7,1.2,0.8C20.7,64.9,20.8,64.7,20.7,64.5z"/>
		<path class="st9" d="M20.2,60.4c-0.5,0-1,0.1-1.5,0.2c-0.5,0.1-1,0.2-1.5,0.3c-0.1,0-0.1,0.1,0,0.2c1,0.3,2.3,0.4,3.2-0.2
			C20.5,60.7,20.5,60.4,20.2,60.4z"/>
		<path class="st9" d="M77.7,109.9c-0.3-0.6-0.8-1.1-1.1-1.7c-0.3-0.6-0.3-1.3-0.5-1.9c0-0.1-0.2-0.1-0.2,0c-0.5,1.3,0.3,3.3,1.5,4
			C77.5,110.3,77.8,110.1,77.7,109.9z"/>
		<path class="st9" d="M82.3,110.4c-0.5-0.3-1-0.4-1.4-0.8c-0.5-0.3-0.8-0.8-1.2-1.2c-0.1-0.1-0.2,0-0.2,0.1c0,1.2,1.6,2.4,2.7,2.3
			C82.4,110.8,82.5,110.5,82.3,110.4z"/>
		<path class="st9" d="M109.1,125.7c-0.6-0.1-1.2,0.1-1.8,0c-0.6-0.1-1.2-0.4-1.9-0.4c0,0-0.1,0,0,0.1c0.6,1,2.9,1.3,3.8,0.6
			C109.2,125.9,109.2,125.7,109.1,125.7z"/>
		<path class="st9" d="M106.9,123c-0.4-0.5-0.8-1-1.2-1.6c-0.2-0.2-0.5,0-0.4,0.2c0.3,0.6,0.6,1.2,1,1.7c0.3,0.4,0.7,1.1,1.2,1
			c0.1,0,0.2-0.1,0.2-0.2C107.8,123.7,107.2,123.3,106.9,123z"/>
	</g>
	<g>
		<path class="st10" d="M30.7,86.6c-0.5,0.1-0.8,0.5-1.2,0.8c-0.4,0.3-0.9,0.7-1.1,1.2c-0.1,0.2,0.1,0.6,0.4,0.5
			c0.5-0.2,0.9-0.6,1.2-0.9c0.4-0.4,0.8-0.7,1-1.2C31.1,86.7,30.9,86.5,30.7,86.6z"/>
		<path class="st10" d="M35.1,91.9c-0.5-0.4-1.2-0.6-1.7-1c-0.6-0.4-1.1-1-1.6-1.5c-0.1-0.1-0.3,0-0.3,0.1c0.3,0.7,0.8,1.3,1.4,1.8
			c0.5,0.5,1.2,1,2,1.1C35.2,92.4,35.3,92.1,35.1,91.9z"/>
		<path class="st10" d="M120.8,130.5c-0.4-0.5-1.1-0.9-1.5-1.4c-0.5-0.6-0.9-1.2-1.3-1.8c-0.1-0.1-0.2-0.1-0.2,0.1
			c0,0.8,0.4,1.6,0.9,2.2c0.4,0.6,1.1,1.3,1.8,1.5C120.8,131.2,121,130.7,120.8,130.5z"/>
		<path class="st10" d="M124.1,129.4c-0.3-0.6-1-0.8-1.6-1.1c-0.6-0.2-1.3-0.4-2-0.2c-0.2,0.1-0.2,0.3,0,0.3
			c0.5,0.3,1.1,0.4,1.7,0.7c0.5,0.2,1,0.7,1.5,0.8C124,130,124.2,129.7,124.1,129.4z"/>
		<path class="st10" d="M156.4,102.3c-0.2,0.5-0.4,0.9-0.7,1.4c-0.3,0.4-0.6,0.8-0.8,1.2c-0.2,0.3,0.2,0.7,0.5,0.5
			c0.9-0.6,1.4-1.9,1.6-2.9C157,102.1,156.5,101.9,156.4,102.3z"/>
		<path class="st10" d="M157.4,104.9c0-0.2-0.3-0.2-0.4-0.1c-0.3,0.6-0.4,1.3-0.7,1.9c-0.2,0.6-0.7,1.1-0.7,1.7
			c0,0.3,0.3,0.4,0.5,0.3c0.6-0.3,0.9-1.2,1.1-1.8C157.3,106.3,157.5,105.6,157.4,104.9z"/>
		<path class="st10" d="M153.7,106.1c-0.2-0.5-0.4-1-0.9-1.5c-0.1-0.1-0.3,0-0.3,0.1c0,0.6,0.2,1.1,0.4,1.6c0.2,0.5,0.4,1,0.7,1.4
			c0.2,0.2,0.6,0,0.5-0.2C154.2,107,154,106.6,153.7,106.1z"/>
		<path class="st10" d="M63.3,106c-0.5,0.3-0.9,0.8-1.5,1.2c-0.5,0.4-1.1,0.7-1.6,1c-0.1,0,0,0.1,0,0.1c1.3,0.1,2.9-0.8,3.4-2
			C63.8,106.1,63.5,105.9,63.3,106z"/>
		<path class="st10" d="M59.9,103.4c-0.5,0.1-0.6,0.9-0.7,1.4c-0.1,0.6-0.1,1.2,0.2,1.8c0.1,0.1,0.3,0.1,0.3,0
			c0.2-0.8,0.2-1.5,0.4-2.3C60.1,104,60.3,103.3,59.9,103.4z"/>
		<path class="st10" d="M27,86.1c-0.2-0.8-0.2-1.6-0.2-2.4c0-0.3-0.4-0.4-0.5-0.1c-0.6,1.5-0.2,3.8,1.1,4.8c0.2,0.1,0.5,0,0.4-0.2
			C27.6,87.4,27.2,86.8,27,86.1z"/>
	</g>
</g>
</svg>
