<!-- Generator: Adobe Illustrator 24.0.3, SVG Export Plug-In  -->
<svg version="1.1" xmlns="http://www.w3.org/2000/svg" xmlns:xlink="http://www.w3.org/1999/xlink" x="0px" y="0px" width="16.1px"
	 height="8.3px" viewBox="0 0 16.1 8.3" style="enable-background:new 0 0 16.1 8.3;" xml:space="preserve">
<style type="text/css">
	.st0{opacity:0.25;}
	.st1{fill:#FFAE7F;}
	.st2{fill:#FF9252;}
</style>
<defs>
</defs>
<g>
	<g class="st0">
		<g>
			<g>
				<path d="M0.9,3.1C1,3.2,1.4,3.4,1.5,3.3c0,0,0.1-0.1,0.2-0.1c0.1,0.3,0.3,0.5,0.4,0.6c0,0,0,0,0,0C2.5,4,3,4.5,3.3,4.6
					c0.3,0.1,2.1,0.2,2.1,0.2S7,3.8,6.9,3.4c0-0.1-1.3-0.5-1.5-0.8C5.3,2.3,5.3,2.1,5.1,2C4.9,1.8,4.7,1.4,4.6,1.1
					C4.4,0.7,4.2,0.2,3.8,0.2C3.5,0.1,2.6-0.2,2.5,0.1c0,0.1-0.1,0.2-0.1,0.2c0,0.1,0,0.2,0,0.2C2.1,0.6,1.8,0.7,1.7,0.8
					c0,0,0,0.1,0,0.2c0,0.1,0,0.1,0,0.2c-0.1,0-0.3,0.1-0.3,0.2c0,0.1-0.1,0.2-0.1,0.2c0,0.1,0,0.1,0,0.1C1,1.9,0.7,2,0.7,2.1
					C0.8,2.3,0.8,3,0.9,3.1z"/>
				<path d="M2.3,0.5L3,0.6C2.8,0.4,2.6,0.3,2.4,0.3C2.4,0.4,2.3,0.5,2.3,0.5z"/>
				<path d="M1.7,1.2l0.9,0L2.2,1C2.2,1,2,1,1.7,1C1.7,1.1,1.7,1.1,1.7,1.2z"/>
				<path d="M1.3,1.7l0.7,0c0,0-0.3-0.1-0.7-0.1C1.3,1.6,1.3,1.7,1.3,1.7z"/>
				<path d="M2.1,3.9C1.8,3.4,1.5,2.6,1.5,2.6l0.2,0.7C1.7,3.5,1.9,3.8,2.1,3.9z"/>
			</g>
		</g>
		<path d="M6.9,3.4c-0.6-0.2-1.1,0.5-1.3,1c0.9,0.5,7.9,3.8,9.6,3.9c0.6,0,0.9-0.2,1-0.5c0-0.5-0.3-1.1-0.3-1.1L6.9,3.4z"/>
	</g>
	<g>
		<g>
			<g>
				<path class="st1" d="M0.1,3.1c0.1,0.1,0.5,0.3,0.6,0.2c0,0,0.1-0.1,0.2-0.1C1,3.5,1.1,3.8,1.3,3.9c0,0,0,0,0,0
					C1.8,4,2.2,4.5,2.6,4.6c0.3,0.1,2.1,0.2,2.1,0.2s1.6-0.9,1.5-1.3c0-0.1-1.3-0.5-1.5-0.8C4.5,2.3,4.6,2.1,4.4,2
					C4.2,1.8,4,1.4,3.8,1.1C3.6,0.7,3.4,0.2,3.1,0.2C2.7,0.1,1.9-0.2,1.7,0.1c0,0.1-0.1,0.2-0.1,0.2c0,0.1,0,0.2,0,0.2
					C1.3,0.6,1,0.7,1,0.8c0,0,0,0.1,0,0.2c0,0.1,0,0.1,0,0.2c-0.1,0-0.3,0.1-0.3,0.2c0,0.1-0.1,0.2-0.1,0.2c0,0.1,0,0.1,0,0.1
					C0.3,1.9,0,2,0,2.1C0,2.3,0,3,0.1,3.1z"/>
				<path class="st2" d="M1.6,0.5l0.6,0.1C2.1,0.4,1.8,0.3,1.6,0.3C1.6,0.4,1.6,0.5,1.6,0.5z"/>
				<path class="st2" d="M1,1.2l0.9,0L1.5,1C1.5,1,1.2,1,1,1C1,1.1,1,1.1,1,1.2z"/>
				<path class="st2" d="M0.6,1.7l0.7,0c0,0-0.3-0.1-0.7-0.1C0.6,1.6,0.6,1.7,0.6,1.7z"/>
				<path class="st2" d="M1.3,3.9C1.1,3.4,0.7,2.6,0.7,2.6l0.2,0.7C1,3.5,1.1,3.8,1.3,3.9z"/>
			</g>
		</g>
		<path class="st1" d="M6.1,3.4C5.5,3.2,5,3.9,4.8,4.4c0.9,0.5,7.9,3.8,9.6,3.9c0.6,0,0.9-0.2,1-0.5c0-0.5-0.3-1.1-0.3-1.1L6.1,3.4z
			"/>
	</g>
</g>
</svg>
