<!-- Generator: Adobe Illustrator 24.0.3, SVG Export Plug-In  -->
<svg version="1.1" xmlns="http://www.w3.org/2000/svg" xmlns:xlink="http://www.w3.org/1999/xlink" x="0px" y="0px" width="18.6px"
	 height="35.9px" viewBox="0 0 18.6 35.9" style="enable-background:new 0 0 18.6 35.9;" xml:space="preserve">
<style type="text/css">
	.st0{clip-path:url(#SVGID_2_);}
	.st1{fill:#FF9C63;}
	.st2{fill:#FF8D4A;}
	.st3{fill:#AFB0B7;}
	.st4{fill:#BCBDC5;}
	.st5{fill:#784A37;}
	.st6{fill:#93949A;}
	.st7{fill:#3C0900;}
	.st8{fill:#000303;}
	.st9{fill:#FFAE7F;}
	.st10{fill:#FFFFFF;}
	.st11{fill:#3E0A00;}
	.st12{opacity:0.85;fill:#E4E6E6;}
	.st13{fill:#FF8A64;}
	.st14{fill:#92341C;}
	.st15{opacity:0.43;fill:#E4E6E6;}
	.st16{fill:#FB4A3A;}
	.st17{fill:#D03C2E;}
	.st18{opacity:0.4;fill:#00D5E5;}
	.st19{fill:#641400;}
	.st20{fill:#ED7469;}
	.st21{clip-path:url(#SVGID_4_);}
</style>
<defs>
</defs>
<g>
	<g>
		<defs>
			<circle id="SVGID_1_" cx="9.3" cy="9.3" r="9.3"/>
		</defs>
		<use xlink:href="#SVGID_1_"  style="overflow:visible;fill:#FAE4D9;"/>
		<clipPath id="SVGID_2_">
			<use xlink:href="#SVGID_1_"  style="overflow:visible;"/>
		</clipPath>
		<g class="st0">
			<g>
				<path class="st1" d="M7.5,16.2c0.3,0.8,1.1,1.2,1.9,1.1c1.7-0.1,2.8-1.7,3.2-2.3c0,0,0,0,0,0c0,0,0-0.1,0-0.1l0-0.2l0,0h0
					l-0.1-0.5c-0.6-0.1-2.7-0.4-5,0.9l0,0.4C7.3,15.7,7.4,15.9,7.5,16.2z"/>
				<path class="st2" d="M7.5,14.3l0.2-1.9l4.2-0.7l0.3,1.4l0.2,1c-0.6-0.1-2.7-0.4-5,0.9L7.5,14.3z"/>
				<g>
					<g>
						<path class="st3" d="M5.4,34.6c3.5,1.7,6.1,1.4,7.8,0.8c0.1-0.3,0.1-0.6,0.2-0.9c-0.5,0.2-1.1,0.3-1.9,0.4
							c-2.6,0.2-5.1-0.6-5.9-1.2C5.4,34.2,5.4,34.6,5.4,34.6z"/>
						<path class="st4" d="M5.8,29.1c0.1,1.8-0.1,3.6-0.3,4.6c0.8,0.6,3.3,1.4,5.9,1.2c0.8,0,1.4-0.2,1.9-0.4c0.1-2-1.4-4.4-1.3-6
							c0,0,0,0,0-0.1c0,0,0,0,0,0c0,0,0,0,0,0c0,0,0-0.1,0-0.1c0,0,0-0.1,0-0.1c0,0,0-0.1,0-0.1c0.5-1.8,1.7-3.7,1.6-5.9
							c-0.1-2.2,2.9-6.1,2.9-6.1l-2.7-0.8l-0.1,0.2c-0.5,1-1.8,3.3-4.2,3.7c-0.3,0-0.5,0.1-0.8,0c-0.7-0.1-2.3-0.6-2.4-3.8l-2.8,1.1
							c0,0,0.9,6.3,1.9,9.8c0.2,0.8,0.3,1.7,0.4,2.5c0,0,0,0,0,0.1C5.8,29,5.8,29,5.8,29.1C5.8,29,5.8,29,5.8,29.1
							C5.8,29.1,5.8,29.1,5.8,29.1z"/>
						<path class="st5" d="M6.3,15.5c0.1,3.2,1.7,3.7,2.4,3.8c0.2,0,0.5,0,0.8,0c2.4-0.4,3.7-2.7,4.2-3.7l0.1-0.2l-1-0.3
							c-0.4,0.8-1.5,2.8-3.5,3.1c-1.8,0.3-2-1.9-2-3.1L6.3,15.5z"/>
						<path class="st1" d="M7.3,15.1c0,1.2,0.2,3.4,2,3.1c1.9-0.3,3.1-2.3,3.5-3.1l-3-0.8L7.3,15.1z"/>
					</g>
					<path class="st6" d="M13.3,34.5c0,0.3-0.1,0.6-0.2,0.9c1.4-0.5,2.1-1.4,2.1-1.4l-0.1-1C14.9,33.5,14.3,34.1,13.3,34.5z"/>
					<path class="st3" d="M14.9,28.2c2.3-9.2,1.6-12.2,1.6-12.2s-3,4-2.9,6.1c0.1,2.2-1.1,4.1-1.6,5.9c0,0,0,0.1,0,0.1
						C13.6,28.2,14.9,28.2,14.9,28.2z"/>
					<path class="st3" d="M13.3,34.5c1-0.4,1.6-1,1.9-1.5l-0.3-4.9c0,0-1.3,0-2.9,0C11.7,29.8,13.3,32.4,13.3,34.5z"/>
					<path class="st3" d="M14.9,28.2l0.3,4.9c0.2-0.2,0.3-0.4,0.3-0.6C15.9,31.9,14.9,28.2,14.9,28.2z"/>
					<path class="st4" d="M5.3,33.4c0,0.1,0.1,0.2,0.2,0.3c0.8,0.6,3.3,1.4,5.9,1.2c0.8,0,1.4-0.2,1.9-0.4c0.1-2-1.4-4.4-1.3-6
						c0,0,0,0,0-0.1c0,0,0,0,0,0c0,0,0,0,0,0c0,0,0-0.1,0-0.1c0,0,0-0.1,0-0.1c-2.7,0-6.2,0.1-6.2,0.7c0,0,0,0,0,0c0,0,0,0,0,0
						c0,0,0,0,0,0c0,0,0,0,0,0.1c0,0,0,0,0,0C5.8,30.2,5.2,32.9,5.3,33.4z"/>
				</g>
			</g>
			<g>
				<path class="st7" d="M4.6,5.5c0,0.1,0.5,2.6,0.8,3.6c0.1,0.3,0.4,0.2,0.4,0.2L5.6,6.2L4.6,5.5z"/>
				<polygon class="st8" points="5.9,9 4.7,9.1 4.6,9.5 5.9,9.2 				"/>
				<path class="st7" d="M5.4,7.6L5.4,7.6C5.4,7.7,5.4,7.7,5.4,7.6C5.4,7.7,5.4,7.7,5.4,7.6z"/>
				<g>
					<path class="st9" d="M12.9,7.4c0,0.2-0.1,5-0.6,5.6c-0.6,0.6-2.7,2.3-3,2.4c-0.3,0.1-1.5,0.1-1.7-0.1c-0.2-0.2-1-1.6-1.1-1.9
						C6.4,13.1,5,6.7,5.2,5.9c0.2-0.8,1.7-3,4.9-2.2C10.1,3.7,12.9,4.6,12.9,7.4z"/>
					<path class="st7" d="M7.1,7.8c0.1,0,0,0.6,0,0.6s-1,0-1.4,0.3L5.6,8.2C5.6,8.2,6.3,7.6,7.1,7.8z"/>
					<g>
						<path class="st10" d="M8.9,9.5c1.1,0.8,1.8,0,1.8,0c0,0,0,0,0,0c0-0.2-0.3-0.3-0.5-0.4C10,9,9.8,9,9.6,9
							C9,9.1,8.9,9.5,8.9,9.5z"/>
						<g>
							<path class="st11" d="M9.3,9.8c0.3,0.1,0.5,0.1,0.7,0.1c0.1-0.1,0.2-0.1,0.2-0.2c0,0,0,0,0-0.1c0-0.1,0-0.2,0-0.2
								c0-0.1-0.1-0.2-0.2-0.3C9.9,9,9.8,9,9.8,9c-0.2,0-0.3,0-0.4,0.1C9.3,9.2,9.2,9.2,9.2,9.3C9.1,9.5,9.2,9.7,9.3,9.8z"/>
							<path d="M9.9,9.5c0,0.1-0.2,0.2-0.3,0.2S9.4,9.6,9.4,9.4c0-0.1,0.2-0.2,0.3-0.2C9.8,9.3,9.9,9.4,9.9,9.5z"/>
						</g>
						<path class="st12" d="M10.2,9.5c0,0.1-0.1,0.2-0.2,0.1c-0.1,0-0.1-0.1-0.1-0.2c0-0.1,0.1-0.2,0.2-0.1
							C10.2,9.3,10.2,9.4,10.2,9.5z"/>
						<path class="st13" d="M8.9,9.5c0,0,0.2-0.4,0.7-0.5c0.2,0,0.4,0,0.6,0.1c0.2,0.1,0.4,0.2,0.5,0.4c0-0.1,0-0.6-0.6-0.7
							C9.5,8.6,9,8.9,8.9,9.5z"/>
					</g>
					<g>
						<path class="st10" d="M6,9.7C6,9.7,6,9.7,6,9.7c0,0,0.1,0.1,0.4,0.2C6.6,10,6.8,10,7.1,9.9c0.1-0.1,0.3-0.2,0.4-0.4
							c0,0-0.2-0.4-0.7-0.4c-0.1,0-0.1,0-0.2,0c-0.1,0-0.1,0.1-0.2,0.1c0,0,0,0,0,0c0,0,0,0-0.1,0C6.2,9.4,6,9.6,6,9.7z"/>
						<g>
							<g>
								<path class="st11" d="M6.3,9.8C6.3,9.8,6.3,9.9,6.3,9.8c0,0.1,0.1,0.1,0.1,0.1C6.6,10,6.8,10,7.1,9.9c0,0,0,0,0,0
									c0-0.1,0-0.1,0-0.2c0-0.1,0-0.2,0-0.2c0,0,0,0,0-0.1C7,9.3,7,9.3,6.9,9.2C6.8,9.2,6.7,9.1,6.6,9.1c0,0-0.1,0-0.1,0
									c0,0-0.1,0-0.1,0.1c0,0,0,0,0,0c0,0,0,0,0,0C6.3,9.3,6.3,9.5,6.3,9.6C6.3,9.7,6.3,9.7,6.3,9.8z"/>
								<path d="M6.5,9.8c0,0.1,0.2,0.2,0.3,0.1c0.1-0.1,0.1-0.2,0.1-0.3c0-0.1-0.2-0.2-0.3-0.1C6.5,9.5,6.5,9.6,6.5,9.8z"/>
							</g>
							<path class="st12" d="M6.9,9.6c0,0.1,0.1,0.1,0.2,0.1s0.1-0.1,0.1-0.2C7.1,9.4,7,9.4,7,9.4C6.9,9.4,6.9,9.5,6.9,9.6z"/>
						</g>
						<path class="st13" d="M7.5,9.5c0,0-0.2-0.4-0.7-0.4c-0.2,0-0.3,0-0.5,0.1C6.2,9.4,6,9.6,6,9.7c0-0.1-0.1-0.6,0.3-0.8
							C6.8,8.7,7.3,8.9,7.5,9.5z"/>
					</g>
					<g>
						<path class="st14" d="M7.2,12.7c0,0.3,0.4,1.1,1.5,1c1-0.2,1-1.1,1-1.1l-0.1,0l-2.2,0.1L7.2,12.7z"/>
						<path class="st10" d="M7.3,12.7c0,0.2,0.1,0.3,0.2,0.3c0.4,0.1,1.6,0.1,1.8-0.1c0.1-0.1,0.1-0.2,0.2-0.3L7.3,12.7z"/>
					</g>
					<path class="st7" d="M10.9,8c-0.1,0-1.1-0.7-2.2-0.3l0.1,0.6c0,0,1-0.4,2,0.1L10.9,8z"/>
					<g>
						<path class="st13" d="M8.7,11.1c0,0-0.1,0.3-0.4,0.2c-0.2,0-0.7-0.1-1,0.1c-0.3,0.2-0.5-0.1-0.5-0.1s-0.1,0.1,0,0.3
							c0.1,0.2,0.6,0.3,0.9,0.1c0.3-0.2,0.5,0.1,0.7,0.1C8.7,11.7,8.9,11.3,8.7,11.1z"/>
						<path class="st15" d="M7.8,10.8c0,0.1,0,0.2,0.1,0.3C7.9,11,8,11,8,10.8c0-0.1,0-0.2-0.1-0.3C7.9,10.6,7.8,10.7,7.8,10.8z"/>
						<path class="st16" d="M7.7,8.8c0.1,0.2-0.2,1.8-0.4,2C7,11.1,6.7,11.3,7,11.6c0.4,0.3,0.8-0.1,1-0.1c0.2,0,0.4,0.2,0.5,0.1
							c0.1-0.1,0.3-0.7-0.2-0.6c0,0,0.4-0.1,0.4,0.1c0.1,0.2,0,0.6-0.2,0.6c-0.2,0-0.5-0.1-0.7-0.1c-0.2,0.1-0.8,0.2-1,0.1
							c-0.2-0.2-0.3-0.5,0.1-0.9C7.5,10.5,7.7,8.8,7.7,8.8z"/>
						<path class="st17" d="M8.3,11.6c0,0-0.2-0.3-0.5,0C7.8,11.6,8.2,11.6,8.3,11.6z"/>
					</g>
					<g>
						<path class="st18" d="M7.4,9.3c0,0.2-0.1,0.8-0.3,1c-0.2,0.2-0.2,0.3-0.7,0.4c-0.5,0.1-0.9,0.1-1.2-0.1
							C5.1,10.5,4.9,10,4.9,9.8c0,0-0.3-0.8,0.3-1C5.8,8.7,6.6,8.6,7,8.8C7.4,8.9,7.5,9.1,7.4,9.3z"/>
						<path class="st18" d="M8.2,9.3c0,0.2,0.2,0.8,0.4,1c0.2,0.2,0.3,0.3,0.7,0.3c0.5,0,0.9,0,1.1-0.2c0.2-0.2,0.3-0.7,0.3-0.8
							c0,0,0.2-0.9-0.4-1C9.8,8.5,9,8.5,8.6,8.7C8.3,8.9,8.2,9.1,8.2,9.3z"/>
						<path class="st8" d="M4.4,9.1l0,0.4l0.3,0.2v0c0,0.2,0.1,0.4,0.1,0.6c0.1,0.4,0.4,0.5,0.6,0.6c0.2,0.1,0.9,0,1.2,0
							c0.3-0.1,0.6-0.4,0.6-0.5c0.1-0.1,0.2-0.6,0.3-0.9c0-0.1,0.1-0.2,0.2-0.2l0,0c0.1,0,0.2,0.1,0.2,0.1c0.1,0.3,0.3,0.8,0.4,0.9
							c0.1,0.1,0.3,0.4,0.7,0.5c0.3,0,1,0,1.2-0.1c0.2-0.1,0.4-0.3,0.5-0.6c0-0.2,0.1-0.4,0.1-0.6l0,0l0.3-0.2l0-0.4l-0.7-0.3l0,0
							C10,8.3,9,8.3,8.3,8.7C8.2,8.8,8.1,8.8,8,8.8l-0.4,0c-0.1,0-0.2,0-0.3-0.1c-0.7-0.4-1.7-0.3-2.2,0l0,0L4.4,9.1z M8.6,8.7
							C9,8.5,9.8,8.5,10.4,8.6c0.6,0.1,0.4,1,0.4,1c0,0.2-0.1,0.6-0.3,0.8c-0.2,0.2-0.7,0.2-1.1,0.2c-0.5,0-0.6-0.2-0.7-0.3
							c-0.2-0.2-0.3-0.7-0.4-1C8.2,9.1,8.3,8.9,8.6,8.7z M5.2,8.8C5.8,8.7,6.6,8.6,7,8.8c0.4,0.1,0.5,0.3,0.4,0.6
							c0,0.2-0.1,0.8-0.3,1c-0.2,0.2-0.2,0.3-0.7,0.4c-0.5,0.1-0.9,0.1-1.2-0.1C5.1,10.5,4.9,10,4.9,9.8C4.9,9.8,4.6,9,5.2,8.8z"/>
					</g>
					<path class="st7" d="M3.8,3.4C3.8,3.4,3.9,3.3,3.8,3.4L3.8,3.4c0.1-0.6,0.6-1.1,1.3-1.1c1.4,0.1,2.4,0.7,3.8-0.2
						C9.9,1.5,10.6,2,11,2.5c0.6,0.6,0.9,0.2,1.4,1c0.6,0.9,0.7,3.7,0.5,4.4c-0.2,0.7-0.2,1.8-0.2,1.8L12,9.4l-0.2-2.3
						c-0.1-0.2-0.2-0.4-0.3-0.5c-0.5-0.5-0.7-1-0.8-1.4C9.8,5.7,7.9,6.5,6,6.4C4.6,6.2,3.7,4.9,3.8,3.4z"/>
					<g>
						<path class="st19" d="M4.4,2.9c0,0-0.4,2.2,2.4,2.5C6.7,5.4,2.9,5.9,4.4,2.9z"/>
						<path class="st19" d="M5.4,3.3c0,0,0.9,2.1,3.4,1.6C8.8,4.9,6.7,4.7,5.4,3.3z"/>
						<path class="st19" d="M9.2,3c0,0,0.2,1,1.3,1.3s1.1,1.6,1.1,1.6s-0.3-1.1-1.2-1.3C9.5,4.5,9.2,3,9.2,3z"/>
					</g>
				</g>
				<polygon class="st8" points="12.4,8.5 11.2,8.8 11.2,9.1 12.4,8.7 				"/>
				<g>
					<path class="st9" d="M12.1,9.2c0-0.4,0.3-0.9,0.6-1.1c0.4-0.2,0.8-0.3,1.2,0.4c0.8,1.3-0.5,2.2-1.1,2.2c-0.2,0-0.3-0.1-0.4-0.3
						C12.2,10.1,12,9.7,12.1,9.2L12.1,9.2z"/>
					<path class="st20" d="M12.6,9.5c0,0-0.1-1.5,1.1-0.7c0,0-0.4-0.2-0.7,0c0,0.2,0,0.6,0.3,0.8c0,0-0.5-0.2-0.5-0.7
						C12.7,9.1,12.6,9.3,12.6,9.5z"/>
				</g>
			</g>
		</g>
	</g>
</g>
</svg>
