<!-- Generator: Adobe Illustrator 24.0.3, SVG Export Plug-In  -->
<svg version="1.1" xmlns="http://www.w3.org/2000/svg" xmlns:xlink="http://www.w3.org/1999/xlink" x="0px" y="0px" width="18.6px"
	 height="36.4px" viewBox="0 0 18.6 36.4" style="enable-background:new 0 0 18.6 36.4;" xml:space="preserve">
<style type="text/css">
	.st0{clip-path:url(#SVGID_2_);}
	.st1{fill:#FFC4A4;}
	.st2{fill:#FFA692;}
	.st3{fill:#FF6061;}
	.st4{fill:#FFDA00;}
	.st5{fill:#DFBD00;}
	.st6{fill:#FF9753;}
	.st7{fill:#E5662E;}
	.st8{fill:#FF8061;}
	.st9{fill:#E8EDEB;}
	.st10{fill:#D9023E;}
	.st11{fill:#FFFFFF;}
	.st12{fill:#973F39;}
	.st13{fill:#3F0100;}
	.st14{fill:#680303;}
	.st15{fill:#F25655;}
	.st16{fill:#D9DDDB;}
	.st17{opacity:0.4;fill:#00FFFF;}
	.st18{fill:#D10101;}
	.st19{fill:#FF0203;}
	.st20{clip-path:url(#SVGID_4_);}
</style>
<defs>
</defs>
<g>
	<g>
		<defs>
			<circle id="SVGID_1_" cx="9.3" cy="9.3" r="9.3"/>
		</defs>
		<use xlink:href="#SVGID_1_"  style="overflow:visible;fill:#FAE4D9;"/>
		<clipPath id="SVGID_2_">
			<use xlink:href="#SVGID_1_"  style="overflow:visible;"/>
		</clipPath>
		<g class="st0">
			<g>
				<path class="st1" d="M13.1,16c0,0-1-3.6-6,0.3l0,0.4l5.8-0.3L13.1,16z"/>
				<path class="st2" d="M7.4,18.7l3.4,0.2c0.1-0.2,1-2.1,1.5-3.1c-0.6-0.3-1.3-0.6-1.7-0.6C9.5,15.1,8.7,15.6,8,16L7.4,18.7z"/>
				<path class="st2" d="M8.9,17c1.7,0.1,2.6-1,2.6-1s0-0.4,0-0.9c-0.6-0.1-1.7-0.2-2.5,0L8.9,17z"/>
				<path class="st3" d="M9,15.2c0.8-0.2,1.8-0.1,2.5,0c0-1,0-2.5,0-2.6l-2.4,1.1L9,15.2z"/>
				<g>
					<path class="st4" d="M4.9,23.4C5,23.5,5,23.6,5.1,23.7c0.1,0.2,0.1,0.5,0.2,0.7c0.4,1.8,0,5.4,0,5.5c0,0.1,2.8,0.4,5.4,0.2
						c0.4,0,0.9-0.1,1.3-0.2c0,0,2.5-3.7,2.9-8.7c0-0.2,0-0.5,0-0.7c0-0.8-0.1-1.6-0.4-2.3c-0.2-0.6-0.6-1.1-1-1.5
						c-0.3-0.3-0.7-0.6-1.2-0.8c-0.5,0.9-1.4,2.8-1.5,3.1l-3.4-0.2L8,16c-0.4,0.3-0.7,0.6-1,0.8c-1,0.8-1.3,2.7-1.9,3.4
						C4.6,20.9,4.1,22.1,4.9,23.4z"/>
					<path class="st5" d="M5.1,23.7c0.1,0.2,0.1,0.5,0.2,0.7c1.5-0.2,7.2-0.6,6.8,1.6c-0.4,2.5-1.4,4.1-1.4,4.1
						c0.4,0,0.9-0.1,1.3-0.2c0,0,2.5-3.7,2.9-8.7c0-0.2,0-0.5,0-0.7c0-0.8-0.1-1.6-0.4-2.3c-0.2,1.8-0.9,4.2-2.7,5
						C9.3,24.4,6,23.9,5.1,23.7z"/>
				</g>
				<path class="st6" d="M8.2,15.7c0,0-2.1,5.6-2.2,5.9C5.5,24.2,5.5,36,5.5,36l-2.2-0.5c0,0,1.4-5.1,1.5-5.9c0.2-0.8,0.4-4,0.2-5.2
					c-0.2-1.1-1.1-1.7-0.7-2.9c0.4-1.2,1-1.8,1.4-2.9c0.4-1,1-1.6,1-1.6L8.2,15.7z"/>
				<path class="st6" d="M8.5,23.6c0.1,0.2,0.1,0.5,0.2,0.7C8.8,24.8,9,25.2,9,25.6c0,0.1,0,0.1,0,0.2c0.2,3.9,0.6,9.5,0.6,10.6
					c0,0,1.4,0,2.8-0.1c1.1-0.1,2.2-0.2,2.8-0.3c0,0-0.9-3.2-1.4-5.6c-0.5-2.4,1.1-7.2,1.2-8.2c0.1-0.6,0.2-2.4-0.6-4
					c-0.5-1-1.3-2-2.7-2.8c0,0-2.8,5.4-3.1,5.9C8.2,22.1,8.3,22.6,8.5,23.6z"/>
				<polygon class="st1" points="11.8,15.3 9.1,20.5 11.1,19.5 11,18.3 13.1,16 				"/>
				<polygon class="st1" points="6.6,19.9 6.2,18.5 7,17.7 7.2,16.3 8.2,15.7 				"/>
				<path class="st7" d="M8.7,24.1l0,0.2C8.8,24.8,9,25.2,9,25.6c0,0.1,0,0.1,0,0.2c0.6-0.3,2.3-0.8,2.8,0.2
					c0.5,1.1-0.6,6.6,0.6,10.3c1.1-0.1,2.2-0.2,2.8-0.3c0,0-0.9-3.2-1.4-5.6c-0.5-2.4,1.1-7.2,1.2-8.2c0.1-0.6,0.2-2.4-0.6-4
					c-0.2,1.6-0.9,5.5-2.6,5.9C9.6,24.6,8.7,24.1,8.7,24.1z"/>
			</g>
			<g>
				<polygon points="6,9.2 2.9,8.8 2.9,9.3 6,9.5 				"/>
				<path class="st8" d="M7.3,15.6c0.8,0.1,2.1-0.2,3.1-1.3c0.9-1,1.8-2.3,2.9-3.2c0.9-0.8,1.1-2.6,1.1-3.8c0-1-1.7-4.7-5.8-4.5
					c3.6,0.2,5.1,3.5,5,4.5c0,1.2-0.2,2.9-1.1,3.8c-1.1,0.9-2,2.3-2.9,3.2C8.9,15.2,8,15.5,7.3,15.6z"/>
				<path class="st2" d="M4.9,11.5c1,1,0.7,3.2,1.5,3.9c0.2,0.2,0.5,0.3,0.8,0.3c0.7-0.1,1.6-0.5,2.4-1.3c0.9-1,1.8-2.3,2.9-3.2
					c0.9-0.8,1.1-2.6,1.1-3.8c0-0.9-1.5-4.3-5-4.5C7.8,2.9,7,3.1,6,3.5c0,0-1.4,1.2-1.5,2.5c0,1.3,0.3,2.2,0,3
					C4.3,9.8,4,10.5,4.9,11.5z"/>
				<path class="st9" d="M8.9,6.8c0.1,0,0.7,0.1,1,0.2c0.4,0.1,0.8,0.2,0.9,0C10.9,6.7,8.1,5.6,8,6.1C8,6.6,8.3,6.7,8.9,6.8z"/>
				<path class="st9" d="M6,6.6c0,0,0.3-0.6-0.2-0.6c-0.5,0-1.3,0.6-1.2,0.8C4.7,7.1,5.8,6.9,6,6.6z"/>
				<g>
					<path class="st10" d="M6.1,11.9c0,0,0.3,1.2,1.4,1.1c0.7,0,1.1-0.5,1.3-1c0,0,0-0.1,0-0.2v0c0-0.1,0-0.2,0-0.3
						c0-0.1,0-0.2,0-0.3c0,0-0.8,0.8-2.5,0.6c0,0,0,0-0.1,0C6.2,11.9,6.1,11.9,6.1,11.9z"/>
					<path class="st11" d="M6.3,11.9c0.1,0.2,0.3,0.4,0.6,0.5c0.8,0.2,1.5-0.2,1.9-0.5c0-0.1,0-0.2,0-0.3c0-0.1,0-0.2,0-0.3
						C8.8,11.4,8,12.2,6.3,11.9z"/>
				</g>
				<g>
					<path class="st11" d="M10.3,8.6c0,0-0.6-1.1-1.5-0.9C7.9,7.9,7.7,8.8,7.7,8.8s0.4,0.8,1.4,0.8C9.9,9.5,10.3,8.6,10.3,8.6z"/>
					<g>
						<path class="st12" d="M8.1,8.5C8,8.9,8.3,9.4,8.8,9.4c0.4,0.1,0.8-0.3,0.9-0.8c0.1-0.5-0.2-0.9-0.6-1C8.6,7.6,8.2,8,8.1,8.5z"
							/>
						<path class="st13" d="M8.5,8.5C8.5,8.7,8.6,9,8.8,9C9,9,9.2,8.9,9.2,8.6c0-0.2-0.1-0.4-0.3-0.5C8.7,8.1,8.6,8.3,8.5,8.5z"/>
					</g>
					<path class="st11" d="M9.9,8.8c0,0.2-0.2,0.4-0.4,0.3C9.3,9,9.1,8.8,9.2,8.6c0-0.2,0.2-0.4,0.4-0.3C9.8,8.3,10,8.5,9.9,8.8z"/>
					<path class="st8" d="M10.3,8.6c0,0-0.5-0.6-1.4-0.7C8.1,7.8,7.7,8.8,7.7,8.8S8,7.3,9.1,7.4C10.2,7.5,10.3,8.6,10.3,8.6z"/>
					<path class="st14" d="M10.3,8.6l0.2-0.5c0,0-2.5-1.4-2.8,0.7c0,0,0.4-1,1.3-0.8C9.9,8,10.3,8.6,10.3,8.6z"/>
				</g>
				<g>
					<path class="st11" d="M6.4,8.6c0,0-0.4-1-1-0.9C4.8,7.9,4.8,8.4,4.8,8.4S5,9.3,5.7,9.4C6.4,9.5,6.4,8.6,6.4,8.6z"/>
					<g>
						<path class="st12" d="M5,8.7c0.1,0.4,0.4,0.7,0.7,0.6C6,9.2,6.1,8.8,6,8.5C6,8.1,5.7,7.8,5.4,7.9C5.1,7.9,4.9,8.3,5,8.7z"/>
						<path class="st13" d="M5.3,8.6c0,0.2,0.2,0.3,0.3,0.3c0.1,0,0.2-0.2,0.2-0.4c0-0.2-0.2-0.3-0.3-0.3C5.3,8.3,5.2,8.4,5.3,8.6z"
							/>
					</g>
					<path class="st11" d="M6.2,8.5c0,0.2,0,0.4-0.2,0.4S5.7,8.7,5.7,8.6c0-0.2,0-0.4,0.2-0.4C6,8.1,6.2,8.3,6.2,8.5z"/>
					<path class="st8" d="M6.4,8.6c0,0-1-1.4-1.6-0.3c0,0-0.1-0.7,0.6-0.7C6.1,7.5,6.4,8.6,6.4,8.6z"/>
					<path class="st14" d="M6.4,8.6c0,0-1-1.3-1.6-0.3L4.5,7.9C4.5,7.9,5.9,7.1,6.4,8.6z"/>
				</g>
				<g>
					<path class="st15" d="M9.7,12.6l0.2,0c0.1-0.5-0.2-1.1-0.6-1.5c-0.5-0.5-1.1-0.8-1.2-0.8l0,0.2c0,0,0,0,0,0
						c0.1,0,0.8,0.3,1.3,0.9C9.6,11.8,9.7,12.2,9.7,12.6z"/>
				</g>
				<g>
					<path class="st15" d="M5.6,12.5l0.2,0c-0.2-1,0.2-1.8,0.2-1.8l-0.2-0.1C5.8,10.6,5.4,11.4,5.6,12.5z"/>
				</g>
				<g>
					<path class="st8" d="M7.8,9.9c0,0,0.1,0.5-0.3,0.6c-0.4,0.1-0.7-0.1-1.1,0.1C6,10.8,6,10.1,6,10.1s-0.3,0.7,0.1,0.9
						c0.4,0.2,0.7,0,0.8,0c0.2,0,0.7,0.1,0.7,0.1L8,10.8l0.1-0.3L7.8,9.9z"/>
					<path class="st15" d="M6,10.9c0.1,0.1,0.2,0.1,0.4,0.1c0.1,0,0.2,0,0.3,0C7,11,7.2,11,7.4,11c0.2,0,0.4,0.1,0.6-0.2
						c0.3-0.3,0.1-0.8-0.1-1l0,0L7.7,9.9l0,0c0,0,0,0,0,0c0.1,0.1,0.3,0.5,0.1,0.7c-0.2,0.2-0.3,0.1-0.4,0.1c-0.2,0-0.4-0.1-0.8,0
						c-0.2,0.1-0.4,0-0.5-0.1C6.1,10.8,6,10.6,6,10.2c0-0.2,0.1-0.6,0.3-1c0.2-0.5,0.2-1,0.2-1.4H6.4c0,0.4,0,0.9-0.2,1.4
						C5.8,10.1,5.8,10.7,6,10.9z"/>
				</g>
				<path class="st9" d="M5.4,4.7C5.3,4.6,5.3,4.6,5.4,4.7C5.3,4.6,5.3,4.6,5.4,4.7z"/>
				<path class="st9" d="M4.6,6.3c0,0-0.2-0.6,0.7-1.7C4.8,4.1,4.9,3.4,4.9,3.4c0.3,0.9,2.3,1.4,3.9,0.7s4.3,2.1,4.3,0.5
					s1.8-2,1.8-2s-4-2.8-5.5-2.3C7.9,0.8,6.4,0,5.9,0.5C5.3,1,4.1,1.5,4,2C3.8,2.5,3.6,3.1,3,3.7C2.5,4.3,4.6,6.3,4.6,6.3z"/>
				<path class="st16" d="M5.3,4.6L5.3,4.6C5.3,4.6,5.3,4.6,5.3,4.6c0.3,0.3,0.9,0.6,2.5,0.4c2.1-0.4,2.7,0,2.7,0s-0.1,2.6,1.4,3.2
					c0,0,0.3,0.7,0,1.8l3.2-0.3c0,0,1.1-3.1,0.4-4.2c-0.8-1.1-1.1-1.7-0.6-2.8c0,0-1.8,0.3-1.8,2s-2.7-1.3-4.3-0.5S5.1,4.3,4.9,3.4
					C4.9,3.4,4.8,4.1,5.3,4.6z"/>
				<g>
					<path class="st17" d="M7.4,10.5c0.3,0.2,0.7,0.3,1.2,0.2c0.5-0.1,0.7-0.7,0.7-1c0,0,0.1-0.3-0.1-0.5C8.9,8.9,8.6,8.8,7.8,8.9
						C7,8.9,7,9.3,6.9,9.5C6.9,9.7,7.1,10.3,7.4,10.5z"/>
					<path class="st17" d="M5.3,10.5c-0.3,0.2-0.7,0.3-1.2,0.2c-0.5-0.1-0.7-0.7-0.7-1c0,0-0.1-0.3,0.1-0.5c0.2-0.2,0.5-0.4,1.3-0.3
						c0.8,0.1,0.9,0.5,0.9,0.6C5.8,9.7,5.6,10.3,5.3,10.5z"/>
					<path d="M2.9,9.3l0.3,0.3c0.3,1.2,0.8,1.2,1.1,1.3c0.3,0,1,0.1,1.5-0.7C5.9,9.9,6,9.8,6,9.6c0,0,0,0,0,0c0,0,0,0,0,0
						s0.1-0.3,0.4-0.3c0.2,0,0.4,0.3,0.4,0.3s0,0,0,0c0,0,0,0,0,0c0,0.2,0.1,0.3,0.2,0.5c0.5,0.7,1.1,0.7,1.5,0.7
						c0.3,0,0.8-0.1,1.1-1.3l0.3-0.3l0-0.5c0,0-2.1-0.5-2.9,0.1c0,0,0,0,0,0c0,0,0,0,0,0c0,0,0,0,0,0C6.8,9,6.4,9,6.4,9l0,0h0h0l0,0
						c0,0-0.4,0-0.5,0c0,0,0,0,0,0c0,0,0,0,0,0c0,0,0,0,0,0C5,8.3,2.9,8.8,2.9,8.8L2.9,9.3z M6.9,9.5C7,9.3,7,8.9,7.8,8.9
						c0.8-0.1,1.1,0.1,1.3,0.3c0.2,0.2,0.1,0.5,0.1,0.5c0,0.3-0.3,1-0.7,1c-0.5,0.1-0.9,0-1.2-0.2C7.1,10.3,6.9,9.7,6.9,9.5z
						 M3.6,9.1c0.2-0.2,0.5-0.4,1.3-0.3c0.8,0.1,0.9,0.5,0.9,0.6c0,0.2-0.1,0.8-0.4,1c-0.3,0.2-0.7,0.3-1.2,0.2
						c-0.5-0.1-0.7-0.7-0.7-1C3.4,9.7,3.4,9.3,3.6,9.1z"/>
				</g>
				<polygon points="13,9.2 9.8,8.8 9.9,9.3 13,9.5 				"/>
				<g>
					<g>
						<path class="st2" d="M12.8,11.1c0.1,0.1,0.2,0.1,0.3,0.2c0.1,0.1,0.3,0.1,0.4,0.1c0,0,0.1,0,0.1,0c0.4,0,0.9-0.3,1.2-0.6
							c0.5-0.6,0.7-1.3,0.4-1.9C15,8.4,14.6,8.3,14,8.4c0,0,0,0-0.1,0c-0.3,0.1-0.6,0.3-0.8,0.5c-0.4,0.3-0.6,0.8-0.6,1.3
							C12.5,10.6,12.6,10.9,12.8,11.1z"/>
					</g>
					<path class="st8" d="M14.2,9c0,0,0.5-0.2,0.4,0.1c-0.1,0.2-0.7,0-1,0.8c0,0,0.5,0.2,0.3,0.6c-0.2,0.4-0.7,0.3-0.7,0.2
						c0-0.1,0.6,0,0.5-0.3c0-0.3-0.6-0.3-0.6-0.3C13.1,10,13.5,9.1,14.2,9z"/>
				</g>
				<g>
					<g>
						<path class="st18" d="M12.5,12.4c0.1,0.2,0.3,0.3,0.5,0.3c0.4,0,0.7-0.4,0.7-1c0-0.4-0.2-0.7-0.4-0.9c0.1,0.2,0.2,0.4,0.2,0.6
							c0,0.5-0.3,1-0.7,1C12.7,12.5,12.6,12.5,12.5,12.4z"/>
						<path class="st19" d="M12.4,11.8c0,0.2,0.1,0.5,0.2,0.6c0.1,0.1,0.2,0.1,0.3,0.1c0.4,0,0.7-0.4,0.7-1c0-0.2-0.1-0.5-0.2-0.6
							c-0.1-0.1-0.2-0.1-0.3-0.1C12.7,10.8,12.4,11.2,12.4,11.8z"/>
					</g>
					<path class="st11" d="M12.6,11.3c0,0.2,0,0.3,0.1,0.4c0.1,0,0.2-0.1,0.3-0.3c0-0.2,0-0.3-0.1-0.4C12.8,11,12.6,11.1,12.6,11.3z
						"/>
				</g>
			</g>
		</g>
	</g>
</g>
</svg>
