<!-- Generator: Adobe Illustrator 24.0.3, SVG Export Plug-In  -->
<svg version="1.1" xmlns="http://www.w3.org/2000/svg" xmlns:xlink="http://www.w3.org/1999/xlink" x="0px" y="0px" width="18.6px"
	 height="24px" viewBox="0 0 18.6 24" style="enable-background:new 0 0 18.6 24;" xml:space="preserve">
<style type="text/css">
	.st0{clip-path:url(#SVGID_2_);}
	.st1{fill:#FDD79D;}
	.st2{fill:#F39B8B;}
	.st3{fill:#FFA692;}
	.st4{fill:#F2E6B6;}
	.st5{fill:#C33066;}
	.st6{fill:#FF5963;}
	.st7{fill:#214A8C;}
	.st8{fill:#173970;}
	.st9{fill:#F6B493;}
	.st10{fill:#270605;}
	.st11{fill:#DADEDC;}
	.st12{fill:#FF8061;}
	.st13{fill:#E9EEEB;}
	.st14{fill:#D9023E;}
	.st15{fill:#FFFFFF;}
	.st16{fill:#973F39;}
	.st17{fill:#3F0100;}
	.st18{fill:#F25655;}
	.st19{opacity:0.4;fill:#00ACE4;}
	.st20{clip-path:url(#SVGID_4_);}
</style>
<defs>
</defs>
<g>
	<g>
		<defs>
			<circle id="SVGID_1_" cx="9.3" cy="9.3" r="9.3"/>
		</defs>
		<use xlink:href="#SVGID_1_"  style="overflow:visible;fill:#FAE4D9;"/>
		<clipPath id="SVGID_2_">
			<use xlink:href="#SVGID_1_"  style="overflow:visible;"/>
		</clipPath>
		<g class="st0">
			<g>
				<path class="st1" d="M5.5,24c1-2.3,3.1-7.4,3.1-7.4c0.1-0.1,0.6-0.3,0.9,1.6c0.2,1.3-0.9,3.9-1.8,5.8H5.5z"/>
				<g>
					<path class="st1" d="M9.1,24c0-2.6-1.5-5.5-0.8-7.4c0.5-1.6,4.4-2.2,5.6-1.4c0.7,0.5,2.9,2.5,3.7,8.8H9.1z"/>
					<path class="st2" d="M11.4,17.8c0,0-1.1-0.8-1.5-0.9l0.5-0.4L11.4,17.8z"/>
					<path class="st2" d="M8.7,17.8c0,0,0.3-0.5,0.6-0.6l0-0.2L9,16.7C9,16.7,8.7,17.5,8.7,17.8z"/>
					<g>
						<path class="st3" d="M9.9,16.7c1.3-0.6,1.4-2.8,1.4-2.8l-0.1-0.2c-0.3,0.1-1.4,0.4-2.4,1C8.8,15.6,8.9,17.1,9.9,16.7z"/>
						<path class="st4" d="M8.9,15.5c0,0,0,1.2,0.6,1.1v0.2c0,0-0.5-0.3-0.8,0.9C8.7,17.8,8.6,16.2,8.9,15.5L8.9,15.5z"/>
						<path class="st5" d="M9.7,17.5c0,0,0.4,0.3,0.8,1.4c0.4,1.1,0.4,4,0.4,4H9.2l0.3-5.4H9.7z"/>
						<path class="st6" d="M8.8,14.7c0.9-0.6,2-0.9,2.4-1l-0.9-1.2L8.9,14C8.9,14,8.8,14.3,8.8,14.7z"/>
						<polygon class="st5" points="10.5,16.7 10,17.1 10,16.7 10.4,16.4 						"/>
						<path class="st4" d="M12.8,14.7c0,0,0.4,0.9-1.4,3.1l-1.1-1.2l-0.5,0.3v-0.3c0,0,1.3-1.1,1.4-2.7L12.8,14.7z"/>
						<path class="st5" d="M10.1,17.2c0,0,0-0.7-0.2-0.7c-0.2,0-0.5,0.1-0.5,0.4c0,0.3-0.1,0.7,0.1,0.7
							C9.6,17.7,10.1,17.9,10.1,17.2z"/>
						<path class="st5" d="M9.4,16.8c0,0-0.2,0-0.3,0.1C9,17,9.3,17.1,9.3,17.1L9.4,16.8z"/>
					</g>
					<g>
						<path class="st7" d="M16,24H9.1c0-2.6-1.5-5.5-0.8-7.4c0.1,1.7,1.4,6,1.4,6c2.8-3.2,3.3-7.5,3.4-7.7c0.4,0.1,0.7,0.2,0.9,0.3
							c0.2,0.2,0.6,0.5,1.1,1c-0.2,0.6-0.2,1.4,0,2.3C15.3,19.8,15.8,21.8,16,24z"/>
						<path class="st8" d="M16,24c-0.2-2.2-0.7-4.3-1-5.4c-0.2-1-0.2-1.7,0-2.3c0.9,1.2,2.1,3.5,2.6,7.7H16z"/>
					</g>
					<path class="st1" d="M14.3,16.7c0-0.2,0.1-0.4,0.2-0.4c0,0,0,0,0,0c0.2,0,0.5,0.2,0.7,0.5c0.2,0.3,0.4,0.6,0.4,1
						c0.1,0.6,0.3,1.9-0.1,2.2c-0.1,0-0.1,0.1-0.2,0.1c0,0-0.1,0-0.1,0c-0.3-0.1-0.6-0.6-0.8-1.4C14.3,17.9,14.2,17.2,14.3,16.7z"/>
				</g>
				<g>
					<g>
						<path class="st1" d="M13.3,24c0.1-1,0.2-2.2,0.4-3.4c0.3-2,0.5-4,1-4.2c0.1,0,0.1,0,0.2,0c0,0,1.4,4.3,0.4,7.6H13.3z"/>
						<path class="st9" d="M15.7,24h-0.4c1-3.3-0.4-7.6-0.4-7.6c0.9,0.4,1,3.9,1,5.3c0,0.3,0,0.5,0,0.5l0,0l0,0
							C15.9,22.2,15.9,23.1,15.7,24z"/>
					</g>
				</g>
			</g>
			<g>
				<polygon class="st10" points="3.7,7.9 6.9,8.2 6.8,8.5 3.7,8.3 				"/>
				<path class="st11" d="M5.8,4.8c0,0-0.7-0.1-0.9,0.3C4.5,5.5,4.6,8.5,5.5,8.5C6.3,8.4,6.4,8,6.4,8L5.8,4.8z"/>
				<path class="st12" d="M7.7,14.6c0.9,0.1,1.9-0.2,3.1-1c1.1-0.8,1.7-1.8,2.2-2.9c-0.1,0-0.2,0-0.2-0.1c-0.1-0.1-0.2-0.1-0.3-0.2
					c0,0,0,0,0,0c-0.4,1.2-1.1,2.3-2.3,3.2C9.2,14.2,8.4,14.5,7.7,14.6z"/>
				<path class="st3" d="M4.9,12.2c0.1,1.1,1.2,2.2,2.7,2.4c0.7-0.1,1.6-0.4,2.4-1c1.1-0.8,1.8-2,2.3-3.2c0,0,0,0,0,0
					c0.1,0.1,0.2,0.1,0.3,0.2c0.1,0,0.2,0.1,0.2,0.1c0.1-0.3,0.2-0.5,0.3-0.8c0-0.1,0.1-0.2,0.1-0.3c0.1-0.4,0.2-0.7,0.2-1.1
					c0-0.1,0-0.2,0-0.3c0-0.3,0.1-0.5,0.1-0.7c0-0.5,0-0.7,0-0.7s0.1-5.3-4.4-5.3c-0.1,0-0.2,0-0.4,0c-5.2,0.2-3.6,4.9-3.6,6
					C5.3,8.5,4.9,11.6,4.9,12.2z"/>
				<path class="st13" d="M8.9,6.7C9,6.7,9.7,6.8,10,6.9c0.4,0.1,0.9,0.2,1,0c0.1-0.3-3-1.6-3.1-0.9C7.9,6.5,8.3,6.6,8.9,6.7z"/>
				<path class="st13" d="M6.7,6.6c0,0,0.4-0.6-0.2-0.6C6,6,5,6.6,5.1,6.9C5.2,7.1,6.5,6.9,6.7,6.6z"/>
				<g>
					<path class="st14" d="M6.5,11.3c0,0,0.3,1.2,1.4,1.2c0.7,0,1.1-0.5,1.3-1c0,0,0-0.1,0-0.2v0c0-0.1,0-0.2,0-0.3
						c0-0.1,0-0.2,0-0.3c0,0-0.8,0.8-2.6,0.5c0,0,0,0-0.1,0C6.6,11.3,6.6,11.3,6.5,11.3z"/>
					<path class="st15" d="M6.7,11.3c0.1,0.2,0.3,0.4,0.6,0.5c0.8,0.2,1.5-0.2,1.9-0.5c0-0.1,0-0.2,0-0.3c0-0.1,0-0.2,0-0.3
						C9.3,10.7,8.5,11.6,6.7,11.3z"/>
				</g>
				<g>
					<path class="st13" d="M10.5,5.7c0,0.8,1.1,2.9,1.1,2.9h1l1-0.6c0.5-2.4-1.3-4-1.3-4C11.4,4.4,10.5,5.2,10.5,5.7z"/>
					<path class="st11" d="M13.6,8l1-0.6c0,0,0.2-3-1-3.5c-0.4-0.2-0.9-0.1-1.3,0.1C12.3,4.1,14.1,5.6,13.6,8z"/>
				</g>
				<g>
					<path class="st13" d="M4.9,11.3C4.9,11.3,4.9,11.3,4.9,11.3c1.6,0.4,2.5-0.8,2.5-0.8c0.9,1.1,2.4,0.8,2.5,0.8c0,0,0,0,0,0
						c-0.6-1.5-2.5-1.1-2.5-1.1S5.5,9.8,4.9,11.3z"/>
					<path class="st11" d="M4.9,11.3c0,0,1.4,1,2.5-0.4c1.1,1.4,2.4,0.4,2.5,0.4c-0.1,0-1.6,0.3-2.5-0.8C7.4,10.5,6.6,11.7,4.9,11.3
						z"/>
				</g>
				<path class="st12" d="M8.2,8.2c0,0,0.3,1,1.6,0.6c0,0,0.7-0.4,0.5-1.2L8.2,8.2z"/>
				<g>
					<path class="st15" d="M10.3,7.6c0,0-0.7-0.8-1.4-0.5C8.2,7.5,8.2,8.2,8.2,8.2s0.5,0.6,1.3,0.4C10.1,8.4,10.3,7.6,10.3,7.6z"/>
					<g>
						<path class="st16" d="M8.5,8c0,0.4,0.3,0.7,0.7,0.7c0.4,0,0.6-0.4,0.6-0.8c0-0.4-0.3-0.7-0.7-0.7C8.7,7.3,8.5,7.6,8.5,8z"/>
						<path class="st17" d="M8.8,8c0,0.2,0.2,0.3,0.3,0.3c0.2,0,0.3-0.2,0.3-0.4c0-0.2-0.2-0.3-0.3-0.3C8.9,7.6,8.8,7.8,8.8,8z"/>
					</g>
					<path class="st15" d="M10,8c0,0.2-0.1,0.3-0.3,0.3C9.5,8.3,9.4,8.2,9.4,8c0-0.2,0.1-0.3,0.3-0.3C9.9,7.6,10,7.8,10,8z"/>
					<path class="st12" d="M10.3,7.6c0,0-0.5-0.4-1.3-0.4C8.3,7.3,8.2,8.2,8.2,8.2s0-1.3,0.9-1.3C10,6.8,10.3,7.6,10.3,7.6z"/>
				</g>
				<path class="st12" d="M5.4,7.5c0,0-0.1,0.9,0.4,1.2c0.4,0.2,0.9-0.3,0.9-0.3L5.4,7.5z"/>
				<g>
					<path class="st15" d="M6.7,8c0,0-0.2-0.9-0.7-0.9c-0.5,0-0.5,0.4-0.5,0.4s0,0.8,0.5,1C6.5,8.7,6.7,8,6.7,8z"/>
					<g>
						<path class="st16" d="M5.6,8c0,0.3,0.2,0.6,0.5,0.6c0.2,0,0.4-0.3,0.4-0.6c0-0.3-0.2-0.6-0.5-0.6C5.7,7.4,5.5,7.6,5.6,8z"/>
						<path class="st17" d="M5.8,8c0,0.2,0.1,0.3,0.2,0.3c0.1,0,0.2-0.1,0.2-0.3c0-0.2-0.1-0.3-0.2-0.3C5.9,7.7,5.8,7.8,5.8,8z"/>
					</g>
					<path class="st15" d="M6.6,8c0,0.2-0.1,0.3-0.2,0.3C6.2,8.3,6.1,8.1,6.1,8c0-0.2,0.1-0.3,0.2-0.3C6.5,7.7,6.6,7.8,6.6,8z"/>
					<path class="st12" d="M6.7,8c0,0-0.7-1.3-1.3-0.5c0,0,0-0.6,0.6-0.5C6.6,7.1,6.7,8,6.7,8z"/>
				</g>
				<g>
					<path class="st12" d="M7.8,9.6c0,0,0.1,0.2-0.1,0.2c-0.3,0-1.4-0.1-1.4-0.2c0,0-0.1,0.5,0.4,0.5c0.5,0,1.5,0.1,1.5,0.1l0-0.4
						L8,9.5L7.8,9.6z"/>
					<g>
						<g>
							<path class="st18" d="M6.8,10.2c0.2,0,0.5,0,0.7,0c0.1,0,0.1,0,0.1,0c0,0,0.1,0,0.2,0c0.3,0.1,0.5,0.1,0.5,0
								c0.1-0.1,0.1-0.3,0-0.5c0-0.1-0.2-0.3-0.4-0.3l0,0.2c0.2,0,0.3,0.1,0.3,0.2c0,0.1,0,0.3,0,0.3c0,0-0.3,0-0.4,0
								c-0.1,0-0.1,0-0.2,0c0,0-0.1,0-0.1,0c-0.3,0-1,0.1-1.1-0.2C6.2,9.5,6.7,8,6.8,7.4L6.7,7.4C6.6,7.6,6,9.4,6.2,9.9
								C6.2,10.1,6.5,10.2,6.8,10.2z"/>
						</g>
						<path class="st3" d="M7.2,7.5L6.8,7.4c0,0-0.4,1.3-0.5,1.7C6.3,9.5,7.1,9.6,7.1,9.6L7.2,7.5z"/>
					</g>
				</g>
				<g>
					<path class="st19" d="M7.1,8.5c0,0.3,0.2,0.5,0.5,0.6c0.3,0.1,0.7,0.1,0.7,0.1s0.7,0,0.8-0.3c0.1-0.3,0.1-0.6,0.1-0.8
						c0,0,0-0.1-0.1-0.1c-1-0.3-1.8-0.2-1.9-0.1C7.2,7.9,7.1,8.2,7.1,8.5z"/>
					<path class="st19" d="M6.2,8.5C6.2,8.8,6,9,5.8,9.1C5.5,9.2,5,9.2,5,9.2s-0.7,0-0.8-0.3C4,8.6,4.1,8.2,4.1,8.1
						c0,0,0-0.1,0.1-0.1c1-0.3,1.8-0.2,1.9-0.1C6.1,7.9,6.3,8.2,6.2,8.5z"/>
					<path class="st10" d="M3.7,8.3l0.2,0c0,0,0,0.6,0.3,0.8c0.3,0.2,1.4,0.2,1.5,0.1c0.1,0,0.4-0.2,0.5-0.5
						c0.1-0.1,0.1-0.6,0.1-0.7C6.5,8,6.6,8,6.6,8s0.2,0,0.3,0.1c0,0.2,0.1,0.6,0.1,0.7c0.1,0.2,0.4,0.4,0.5,0.5
						c0.1,0,1.2,0.1,1.5-0.1c0.3-0.2,0.3-0.8,0.3-0.8l0.2,0l0.1-0.4c-0.4-0.2-2-0.3-2.3-0.2c0,0-0.1,0-0.1,0.1c0,0-0.1,0-0.1,0.1
						l-0.5,0l-0.5,0c0,0-0.1-0.1-0.1-0.1c0,0-0.1,0-0.1-0.1c-0.3-0.1-1.9,0-2.3,0.2L3.7,8.3z M7.3,7.9C7.4,7.8,8.2,7.6,9.2,8
						c0,0,0.1,0,0.1,0.1c0,0.1,0,0.5-0.1,0.8C9,9.2,8.3,9.2,8.3,9.2s-0.5,0-0.7-0.1C7.3,9,7.2,8.8,7.1,8.5C7.1,8.2,7.2,7.9,7.3,7.9z
						 M4.1,8.1C4.1,8,4.1,8,4.1,8.1c1.1-0.4,1.8-0.3,2-0.2c0.1,0.1,0.2,0.3,0.2,0.6C6.2,8.8,6,9,5.8,9.1C5.5,9.2,5,9.2,5,9.2
						s-0.7,0-0.8-0.3C4,8.6,4.1,8.2,4.1,8.1z"/>
				</g>
				<polygon class="st10" points="9.7,7.9 12.7,8.2 12.6,8.5 9.6,8.3 				"/>
				<g>
					<path class="st3" d="M12.4,10.4c0.1,0.1,0.2,0.1,0.3,0.2c0.2,0.1,0.3,0.1,0.5,0.1c0.1,0,0.1,0,0.2,0c0.5,0,1-0.3,1.3-0.7
						c0.6-0.6,0.8-1.4,0.5-2.1c-0.3-0.5-0.8-0.7-1.4-0.5c0,0,0,0-0.1,0c-0.3,0.1-0.6,0.3-0.9,0.5C12.3,8.4,12,8.9,12,9.4
						C12,9.9,12.1,10.2,12.4,10.4z"/>
					<path class="st12" d="M13.2,8.3c0,0,1.5-0.7,1.4,0.6c-0.2,1.3-1.7,1-1.7,1S14.3,8.9,13.2,8.3z"/>
				</g>
			</g>
		</g>
	</g>
</g>
</svg>
