<!-- Generator: Adobe Illustrator 24.0.3, SVG Export Plug-In  -->
<svg version="1.1" xmlns="http://www.w3.org/2000/svg" xmlns:xlink="http://www.w3.org/1999/xlink" x="0px" y="0px" width="19.4px"
	 height="21.3px" viewBox="0 0 19.4 21.3" style="enable-background:new 0 0 19.4 21.3;" xml:space="preserve">
<style type="text/css">
	.st0{clip-path:url(#SVGID_2_);}
	.st1{fill:#FFA27F;}
	.st2{fill:#FF7E3F;}
	.st3{fill:#FF5D00;}
	.st4{fill:url(#SVGID_3_);}
	.st5{fill:#3E160F;}
	.st6{fill:#FFFFFF;}
	.st7{fill:#92341C;}
	.st8{fill:#942700;}
	.st9{fill:#380C04;}
	.st10{fill:#5C2A25;}
	.st11{fill:#6C3506;}
	.st12{fill:#491B02;}
	.st13{opacity:0.85;fill:#FFFFFF;}
	.st14{fill:#BF5B0E;}
	.st15{fill:#494E53;}
	.st16{fill:#FF9260;}
	.st17{fill:#D47469;}
	.st18{fill:#AA5F56;}
	.st19{opacity:0.4;fill:#FFFFFF;}
	.st20{fill:url(#SVGID_4_);}
	.st21{clip-path:url(#SVGID_6_);}
	.st22{fill:url(#SVGID_7_);}
	.st23{fill:url(#SVGID_8_);}
</style>
<defs>
</defs>
<g>
	<g>
		<defs>
			<circle id="SVGID_1_" cx="10.1" cy="9.3" r="9.3"/>
		</defs>
		<use xlink:href="#SVGID_1_"  style="overflow:visible;fill:#FAE4D9;"/>
		<clipPath id="SVGID_2_">
			<use xlink:href="#SVGID_1_"  style="overflow:visible;"/>
		</clipPath>
		<g class="st0">
			<g>
				<path class="st1" d="M0,21.3h1.7c1.2-1.2,3.4-3.9,4.1-4.8c-0.5-0.3-1-0.2-1-0.2C4,16.6,2.9,17.5,2.4,18C2.2,18.2,2,18.3,2,18.3
					s-0.5,0.5-1,1.2c-0.2,0.2-0.3,0.4-0.5,0.7c0,0,0,0,0,0c0,0,0,0,0,0C0.4,20.5,0.2,20.9,0,21.3C0,21.2,0,21.2,0,21.3L0,21.3
					C0,21.3,0,21.3,0,21.3z"/>
				<path class="st2" d="M3,21.3c1.4-1.4,3.4-3.8,3.2-4.4c-0.1-0.2-0.2-0.3-0.3-0.4c-0.7,0.9-2.9,3.6-4.1,4.8H3z"/>
				<g>
					<path class="st1" d="M4.7,21.3L4.7,21.3c0.3-0.5,0.5-1.5,0.6-2.1L4.5,19c0,0,0,0,0,0C4.4,19.7,5,20.7,4.7,21.3z"/>
					<path class="st3" d="M4.7,21.3h9.5c0.1-0.3,0.1-0.7,0.2-1.1c0-0.3,0-0.6,0-0.8c0,0-0.2-1.9-2.2-2.9c-0.1-0.1-0.3-0.1-0.4-0.2
						c-0.2-0.1-0.4-0.1-0.6-0.2c-0.4,0.7-1.4,2-3.3,1.8c-1-0.2-1-1-0.8-1.8c-0.2,0-0.6,0.2-0.8,0.3c-0.2,0.1-0.3,0.2-0.4,0.3l0,0
						c-0.7,0.6-1,1.5-1.2,2.1c0,0.1-0.1,0.2-0.1,0.3c0,0,0,0,0,0l0.7,0.3C5.2,19.8,5,20.8,4.7,21.3z"/>
					<path class="st1" d="M5.7,18.7c2.6,1.6,5.6,0,5.6,0l0.4-2.6h0.4c-0.6,0-1.3-0.2-1.3-0.2l-4,0.1c0,0-0.2,0.2-0.7,0.2L5.7,18.7z"
						/>
					<path class="st1" d="M4.5,19C4.5,19,4.5,19,4.5,19l0.7,0.3c0-0.3,0.1-0.5,0.1-0.5l0.5-2.1l0.1-0.5c-0.4,0-1,0-1.2,0.2
						C4.1,16.8,4.5,18.9,4.5,19z"/>
					<path class="st3" d="M11.2,21.3h2.7l-2.1-2.7c0,0,0,0,0,0l0.3-2.2l0-0.2l0-0.2h-0.4l0,0.2l-0.1,0.4l-0.3,2c0,0-3.1,1.6-5.6,0
						L6,17.2l0.2-0.9l0,0l0-0.2c-0.1,0-0.2,0-0.4,0l-0.1,0.5l0,0l-0.5,2.1c0,0,0,0.2-0.1,0.5l2.6,0.9L11.2,21.3z"/>
					<g>
						<path class="st1" d="M7.8,17.8c1.8,0.3,2.8-1,3.3-1.8c0,0-0.3-0.4-0.5-0.9c-0.9,0.1-2,0.1-3.6,0.8C6.8,16.7,6.8,17.7,7.8,17.8
							z"/>
						<path class="st2" d="M6.9,15.9c1.6-0.7,2.7-0.7,3.6-0.8c-0.3-0.5-0.6-1.3-0.7-2H7.7C7.7,13.2,8.2,15.2,6.9,15.9z"/>
					</g>
					<path class="st1" d="M13.9,21.3h0.3c0-0.2,0.1-0.4,0.1-0.6c0-0.2,0.1-0.4,0.1-0.6c0.1-0.8,0.2-1.7,0.1-2.4
						c0-0.3-0.1-0.5-0.2-0.7c-0.1-0.3-0.3-0.5-0.6-0.6c0,0,0,0,0,0c0,0,0,0,0,0h0c-0.1-0.1-0.2-0.1-0.3-0.1c-0.2,0-0.4,0-0.6,0.1
						c0,0-0.4-0.2-0.6-0.2l0,0.2l-0.3,2.2c0,0,0,0,0,0L13.9,21.3z"/>
					<path class="st3" d="M4.9,21.3l3-1.2l3.9-1.5l0.3-2.2l0-0.2l0-0.2l-0.4,0l-0.1,0.3l-0.1,0.4l-0.3,2c0,0-3.1,1.6-5.6,0L6,17.2
						l0.2-0.9l0,0l0-0.2l0-0.1l-0.4,0l0,0.1l-0.1,0.5l-0.5,2.1c0,0,0,0.2-0.1,0.5c-0.1,0.6-0.3,1.6-0.6,2.1H4.9z"/>
					<path class="st1" d="M13.7,21.3h0.2l-2.1-2.7C11.8,18.6,12.2,20.3,13.7,21.3z"/>
				</g>
				<path class="st1" d="M14.7,21.3h2.5c-1.3-1.9-3.1-4.3-4.4-4.9c-1,0.3-0.5,1.1-0.4,1.7C12.5,18.4,13.6,19.9,14.7,21.3z"/>
				<path class="st2" d="M14.5,17.8c0.9,1,1.9,2.4,2.7,3.5H18c-1.3-1.9-3.1-4.4-4.2-4.9c0,0,0,0,0,0c0,0,0,0,0,0
					c-0.1-0.1-0.2-0.1-0.3-0.1c-0.2,0-0.4,0-0.6,0.1C13.3,16.6,13.9,17.1,14.5,17.8z"/>
				<path class="st2" d="M12.2,16.2c0.2,0,0.6,0.2,0.6,0.2c0.1,0,0.3-0.1,0.6-0.1c0.1,0,0.2,0,0.3,0.1h0c-0.4-0.2-1-0.3-1.5-0.4
					L12.2,16.2z"/>
				<path class="st2" d="M13.3,16.3c-0.2,0-0.4,0-0.6,0.1h0.9C13.6,16.3,13.4,16.3,13.3,16.3z"/>
			</g>
			<g>
				
					<linearGradient id="SVGID_3_" gradientUnits="userSpaceOnUse" x1="-442.779" y1="4.6887" x2="-444.6336" y2="3.9233" gradientTransform="matrix(-1 0 0 1 -428.9116 0)">
					<stop  offset="7.297300e-02" style="stop-color:#5C2A25"/>
					<stop  offset="0.2507" style="stop-color:#552622"/>
					<stop  offset="0.9865" style="stop-color:#3D1917"/>
				</linearGradient>
				<path class="st4" d="M12.5,4.5c0,0-0.8-1.6,0.1-2c1-0.4,2.2-0.6,3,0.5c0.7,1.1,1.2,2.1,0.6,2.8c-0.6,0.7-1.2,1.5-2.6,0.9
					C12.3,6,12.5,4.5,12.5,4.5z"/>
				<path class="st5" d="M14.7,6.9c0,0,2.5,2.5,1.5,3.5c-0.9,1-0.9,1.9-2.2,2c-1.2,0.1-1.3-2.8-1.3-2.8L14.7,6.9z"/>
				<path class="st5" d="M5.4,4.6c0,0-1.7,0.7-1.6,2.2C4,8.2,4.7,9.9,4.6,10.9c0,1.7-0.8,4-2.7,3.8c0,0,2.7,1.4,3.5-1.2
					c0.8-2.7-0.3-3.4,0-4.2c0.3-0.8,0.3-3.7,0.9-4.1C7,4.8,5.4,4.6,5.4,4.6z"/>
				<path class="st1" d="M6.3,4.9c0,0-1.7,1.1-1.4,3c0.3,1.6,0.2,2.9,0.1,3.4c-0.1,0.5,0.1,1.9,1.8,3.2c0,0,0.3,0.3,0.9,0.1
					c2-0.7,4.3-1.6,4.2-3.2s1-5.4-1.1-6.7C8.8,3.3,6.3,4.9,6.3,4.9z"/>
				<g>
					<g>
						<g>
							<g>
								<g>
									<g>
										<path class="st6" d="M6.4,12.7c0,0,0.3,0,0.2,0.1C6.6,12.7,6.4,12.7,6.4,12.7c0,0.1,0.1,0.2,0.1,0.3
											c0.1,0,0.1,0.1,0.2,0.1C7,13.2,7.6,13.2,8,12.9c0,0,0.1-0.1,0.1-0.1c0,0,0,0,0,0c0.1-0.1,0.1-0.2,0.1-0.3
											c0,0-1.2,0-1.9-0.1C6.3,12.4,6.4,12.6,6.4,12.7z"/>
									</g>
									<path class="st6" d="M8,12.9C8,12.8,8.1,12.8,8,12.9c0.1-0.1-0.1-0.1-0.3-0.1C7.6,12.8,7.8,12.9,8,12.9z"/>
								</g>
								<path class="st7" d="M6.1,12.3c0,0,0.2,0.4,0.4,0.7c0-0.1-0.1-0.2-0.1-0.2s0.1,0,0.2,0c0.1,0-0.2,0-0.2-0.1
									c0,0-0.1-0.2-0.1-0.3C6.2,12.3,6.2,12.3,6.1,12.3z"/>
							</g>
							<path class="st6" d="M8.3,12.2c0,0-0.1,0.7-0.7,0.9c-0.6,0.2-0.8-0.5-0.8-0.5l-0.4-0.2C6.3,12.4,7.4,12.5,8.3,12.2z"/>
						</g>
						<path class="st8" d="M8.5,12.1c0,0,0.1,0,0.1,0.1C8.7,12.2,8.7,12.1,8.5,12.1c0-0.1-0.2-0.1-0.1,0C8.4,12.1,8.5,12.1,8.5,12.1
							z"/>
						<path class="st8" d="M8.5,12.1c0,0-0.5,0.2-0.7,0.2c-0.2,0-1.6,0-1.7-0.1c-0.1-0.1-0.2,0,0,0.1c0.2,0.1,1.5,0.1,1.7,0.1
							C8.2,12.3,8.6,12.2,8.5,12.1C8.6,12,8.5,12.1,8.5,12.1z"/>
					</g>
				</g>
				<path class="st9" d="M5.8,5.4c0,0-0.8-0.6-1.1-1.1C4.5,3.8,4.6,3.1,5.2,3c0.7,0,2.4,2,2.4,2S6.5,4.6,5.8,5.4z"/>
				<path class="st10" d="M11.3,11.4C11.3,11.4,11.3,11.4,11.3,11.4c0,0.1-0.1,0.2-0.1,0.3c0,0,0,0,0,0.1c0,0.1,0,0.1-0.1,0.2
					c0,0,0,0.1,0,0.1c0,0.1,0,0.1,0,0.2c0,0,0,0.1,0,0.1c0,0.1,0,0.1,0,0.2c0,0,0,0.1,0,0.1c0,0.1,0,0.1,0,0.2c0,0,0,0.1,0,0.1
					c0,0.1,0,0.1,0,0.2c0,0,0,0,0,0.1c0,0.1,0,0.1,0,0.2c0,0,0,0,0,0c0,0.1,0,0.1,0,0.2c0,0,0,0,0,0c0,0,0,0,0,0c0,0,0,0.1,0,0.1
					c0,0,0,0,0,0.1c0,0,0,0.1,0,0.1c0,0,0,0,0,0c0,0,0,0.1,0,0.1c0,0,0,0,0,0c0,0,0,0.1,0.1,0.1c0,0,0,0,0,0c0,0,0,0,0,0
					c0.1,0.2,0.2,0.3,0.3,0.5c0,0,0,0,0,0c0,0,0,0,0,0c0,0.1,0.1,0.1,0.1,0.2c0,0,0,0,0,0c0,0,0.1,0.1,0.1,0.1c0,0,0,0,0,0
					c0,0,0,0,0,0c0,0,0.1,0.1,0.1,0.1c0,0,0,0,0,0c0,0,0.1,0.1,0.1,0.1c0,0,0,0,0,0c0,0,0.1,0,0.1,0.1c0,0,0,0,0,0
					c0,0,0.1,0,0.1,0.1c0,0,0,0,0,0c0,0,0,0,0,0c0,0,0.1,0,0.1,0c0,0,0,0,0,0c0,0,0.1,0,0.1,0c0,0,0,0,0,0c0,0,0.1,0,0.1,0
					c0,0,0,0,0,0c0,0,0.1,0,0.1,0c0,0,0,0,0,0c0,0,0,0,0,0c0,0,0,0,0.1,0c0,0,0,0,0,0c0,0,0,0,0,0c0,0,0,0,0,0c0,0,0.1,0,0.1,0
					c0,0,0,0,0,0c0,0,0,0,0.1,0c0,0,0,0-0.1,0c0,0,0,0,0,0c0.2,0,0.4,0,0.6-0.1c0,0,0,0,0,0c0,0,0,0,0,0c0,0,0.1,0,0.1,0
					c0,0,0,0,0,0c0,0,0.1,0,0.1,0c0,0,0,0,0,0c0,0,0,0,0,0c0,0,0,0,0,0c0,0,0,0,0,0c0,0,0,0,0,0c0,0,0,0,0.1,0c0,0,0.1,0,0.1-0.1
					c0,0,0,0,0.1,0c0,0,0.1,0,0.1-0.1c0,0,0,0,0.1,0c0,0,0,0,0.1-0.1c0,0,0,0,0,0c0,0,0.1-0.1,0.1-0.1c0,0,0,0,0,0
					c0,0,0-0.1,0.1-0.1c0,0,0,0,0,0c0,0,0-0.1,0-0.1c0,0,0,0,0,0c0,0,0-0.1,0.1-0.1c0,0,0,0,0,0c0,0,0-0.1,0-0.1c0,0,0,0,0,0
					c0,0,0,0,0,0c0,0,0-0.1,0-0.1c0,0,0,0,0-0.1c0,0,0,0,0-0.1c0,0,0,0,0,0c0,0,0,0,0-0.1c0,0,0,0,0,0c0,0,0-0.1,0-0.1c0,0,0,0,0,0
					c0-0.3-0.1-0.5-0.2-0.7c0,0,0,0,0,0c0,0,0,0,0,0c0,0,0,0,0,0c0,0,0,0,0,0c0-0.1,0-0.1,0-0.1l0,0l0,0c-0.2,0.7-0.7,1-1.3,1.1
					c0,0,0,0,0,0c0,0-0.1,0-0.1,0c0,0,0,0,0,0c0,0-0.1,0-0.1,0c0,0,0,0,0,0c0,0-0.1,0-0.1,0c-0.2,0-0.4-0.1-0.5-0.2c0,0,0,0,0,0
					c0,0,0,0,0,0c0,0,0,0,0,0c0,0,0,0,0-0.1c0,0,0,0,0,0c0,0,0,0,0,0c0,0,0,0,0,0c0,0,0,0,0,0c0,0,0,0,0,0c0,0,0,0,0,0c0,0,0,0,0,0
					c0,0,0,0,0,0c0,0,0,0,0,0c0,0,0,0,0,0c0,0,0,0,0,0c0,0,0,0,0,0c0,0,0,0,0,0c0,0,0,0,0,0c0,0,0,0,0,0c0,0,0,0,0,0c0,0,0,0,0,0
					c0,0,0,0,0-0.1c0,0,0,0,0,0c0,0,0,0,0-0.1c0,0,0,0,0,0c0,0,0-0.1,0.1-0.1c0.1-0.1,0.3-0.3,0.5-0.4c0.1-0.1,0.3-0.2,0.4-0.4
					c0,0,0,0,0,0c0.2-0.1,0.3-0.3,0.5-0.5c0,0,0,0,0,0c0,0,0-0.1,0.1-0.1c0,0,0,0,0,0c0,0,0-0.1,0.1-0.1c0,0,0,0,0,0
					c0,0,0-0.1,0.1-0.1c0,0,0,0,0-0.1c0,0,0-0.1,0.1-0.1c0,0,0,0,0-0.1c0,0,0-0.1,0.1-0.1c0,0,0,0,0-0.1c0,0,0-0.1,0.1-0.1
					c0,0,0,0,0-0.1c0,0,0-0.1,0.1-0.1c0,0,0,0,0,0c0-0.1,0-0.1,0.1-0.2C15.5,8.6,14.6,6,14.3,5c0-0.1-0.1-0.3-0.2-0.4
					c0,0,0-0.1,0-0.1c0,0,0,0,0,0c-0.1-0.1-0.1-0.2-0.2-0.3c0,0,0,0-0.1-0.1c0,0,0,0-0.1-0.1C13.6,4.1,13.5,4,13.5,4c0,0,0,0,0,0
					c0,0-0.1-0.1-0.1-0.1c0,0,0,0-0.1,0c0,0-0.1-0.1-0.1-0.1c0,0-0.1,0-0.1,0c0,0-0.1,0-0.1,0c-0.1,0-0.2-0.1-0.3-0.1
					c-0.1,0-0.2-0.1-0.3-0.1c0,0,0,0,0,0c0,0,0,0,0,0c0,0,0,0,0,0c0,0,0,0,0,0c0,0,0,0,0,0c0,0,0,0,0,0c0,0-0.1,0-0.1,0c0,0,0,0,0,0
					c0,0,0,0,0,0c0,0,0,0,0,0c0,0,0,0,0,0c0,0,0,0-0.1,0c0,0,0,0-0.1,0c0,0,0,0,0,0c0,0,0,0,0,0c0,0-0.1,0-0.1-0.1c0,0,0,0-0.1,0
					c0,0-0.1,0-0.1-0.1c0,0,0,0-0.1,0c0,0-0.1,0-0.1-0.1c0,0,0,0,0,0c0,0,0,0,0,0c0,0,0,0,0,0c0,0,0,0,0,0c0,0,0,0,0,0
					c0,0,0,0-0.1-0.1c0,0,0,0,0,0c0,0,0,0,0,0C10.8,2.2,9.8,2.3,9,2.5c-0.1,0-0.1,0-0.2,0.1c0,0,0,0,0,0c0,0,0,0,0,0c0,0,0,0,0,0
					c0,0,0,0,0,0c0,0,0,0,0,0c0,0,0,0,0,0c0,0,0,0,0,0c0,0,0,0,0,0c0,0,0,0,0,0c0,0,0,0.1-0.1,0.1c0,0.1,0,0.2,0,0.2c0,0,0,0,0,0
					c0,0,0,0,0,0.1c0,0,0,0,0,0c0,0,0,0,0,0.1c0,0,0,0,0,0c0,0,0,0,0,0.1c0,0,0,0,0,0c0,0.1,0,0.1,0.1,0.2l2.5,3.4
					c0,0,0.1,0.1,0.1,0.1C11.4,7.2,12.4,8.3,11.3,11.4z M11.5,3C11.5,3,11.5,2.9,11.5,3C11.5,2.9,11.5,3,11.5,3z M11.6,3
					C11.6,3,11.6,3,11.6,3C11.6,3,11.6,3,11.6,3z M11.8,3.1C11.8,3.1,11.8,3.1,11.8,3.1C11.8,3.1,11.8,3.1,11.8,3.1z M12.3,3.4
					C12.3,3.4,12.3,3.4,12.3,3.4C12.3,3.4,12.3,3.4,12.3,3.4z M13,12.9C13,12.9,13,12.9,13,12.9C13,12.9,13,12.9,13,12.9z M13.3,3.8
					C13.2,3.8,13.2,3.8,13.3,3.8C13.2,3.8,13.2,3.8,13.3,3.8z M14.9,10.6C14.9,10.6,14.9,10.6,14.9,10.6
					C14.9,10.6,14.9,10.6,14.9,10.6z M14.8,10.8C14.8,10.8,14.8,10.8,14.8,10.8C14.8,10.8,14.8,10.8,14.8,10.8z M14.7,11
					C14.7,11,14.7,11,14.7,11C14.7,11,14.7,11,14.7,11z M14.6,11.2C14.6,11.2,14.6,11.2,14.6,11.2C14.6,11.2,14.6,11.2,14.6,11.2z
					 M14.5,11.4C14.5,11.4,14.5,11.3,14.5,11.4C14.5,11.3,14.5,11.4,14.5,11.4z M14.4,11.5C14.4,11.5,14.4,11.5,14.4,11.5
					C14.4,11.5,14.4,11.5,14.4,11.5z M14.3,11.7C14.3,11.7,14.3,11.6,14.3,11.7C14.3,11.6,14.3,11.7,14.3,11.7z M13.1,12.8
					C13.1,12.8,13.1,12.8,13.1,12.8C13.1,12.8,13.1,12.8,13.1,12.8z M12.8,13.1C12.8,13.1,12.8,13.1,12.8,13.1
					C12.8,13.1,12.8,13.1,12.8,13.1z M12.9,13C12.9,13,12.9,13,12.9,13C12.9,13,12.9,13,12.9,13z M12.8,13.2
					C12.8,13.2,12.8,13.1,12.8,13.2C12.8,13.1,12.8,13.2,12.8,13.2z M12.8,13.2C12.8,13.2,12.8,13.2,12.8,13.2
					C12.8,13.2,12.8,13.2,12.8,13.2z M12.8,13.3C12.8,13.3,12.8,13.3,12.8,13.3C12.8,13.3,12.8,13.3,12.8,13.3z M12.8,13.4
					C12.8,13.4,12.8,13.4,12.8,13.4C12.8,13.4,12.8,13.4,12.8,13.4z M12.8,13.4C12.8,13.4,12.8,13.4,12.8,13.4
					C12.8,13.4,12.8,13.4,12.8,13.4z M12.8,13.6C12.8,13.6,12.8,13.6,12.8,13.6C12.8,13.6,12.8,13.6,12.8,13.6z M12.8,13.7
					C12.8,13.7,12.8,13.7,12.8,13.7C12.8,13.7,12.8,13.7,12.8,13.7z M12.9,13.8C12.9,13.8,12.9,13.8,12.9,13.8
					C12.9,13.8,12.9,13.8,12.9,13.8z M13,13.9C13,13.9,13,13.9,13,13.9C13,13.9,13,13.9,13,13.9z M13.7,14.2
					C13.7,14.2,13.7,14.2,13.7,14.2C13.7,14.2,13.7,14.2,13.7,14.2z M14.4,14C14.4,14,14.4,14,14.4,14C14.4,14,14.4,14,14.4,14z
					 M14.5,13.9C14.5,13.9,14.5,13.9,14.5,13.9C14.5,13.9,14.5,13.9,14.5,13.9z M13.9,14.2C13.9,14.2,13.9,14.2,13.9,14.2
					C13.9,14.2,13.9,14.2,13.9,14.2z M14,14.2C14,14.2,14,14.2,14,14.2C14,14.2,14,14.2,14,14.2z M14.6,13.9
					C14.6,13.9,14.6,13.9,14.6,13.9C14.6,13.9,14.6,13.9,14.6,13.9z M14.7,13.8C14.7,13.8,14.7,13.8,14.7,13.8
					C14.7,13.8,14.7,13.8,14.7,13.8z M14.8,13.7C14.8,13.7,14.8,13.7,14.8,13.7C14.8,13.7,14.8,13.7,14.8,13.7z M14.9,13.6
					C14.9,13.6,14.8,13.6,14.9,13.6C14.8,13.6,14.9,13.6,14.9,13.6z M14.9,13.5C14.9,13.5,14.9,13.5,14.9,13.5
					C14.9,13.5,14.9,13.5,14.9,13.5z M15,13.4C15,13.4,15,13.4,15,13.4C15,13.4,15,13.4,15,13.4z M15,13.3C15,13.3,15,13.3,15,13.3
					C15,13.3,15,13.3,15,13.3z M15.3,14.2C15.3,14.2,15.3,14.2,15.3,14.2C15.3,14.2,15.3,14.2,15.3,14.2z M15.2,14.6
					C15.3,14.6,15.3,14.6,15.2,14.6C15.3,14.6,15.3,14.6,15.2,14.6z M15.2,14.7C15.2,14.7,15.2,14.7,15.2,14.7
					C15.2,14.7,15.2,14.7,15.2,14.7z M15.1,14.9C15.1,14.8,15.1,14.8,15.1,14.9C15.1,14.8,15.1,14.8,15.1,14.9z M14.9,15.1
					C14.9,15.1,14.9,15.1,14.9,15.1C14.9,15.1,14.9,15.1,14.9,15.1z M14.7,15.2C14.7,15.2,14.7,15.2,14.7,15.2
					C14.7,15.2,14.7,15.2,14.7,15.2z M14.6,15.3C14.6,15.3,14.6,15.3,14.6,15.3C14.6,15.3,14.6,15.3,14.6,15.3z M14.3,15.5
					C14.3,15.5,14.3,15.5,14.3,15.5C14.3,15.5,14.3,15.5,14.3,15.5z M14.2,15.5C14.2,15.5,14.2,15.5,14.2,15.5
					C14.2,15.5,14.2,15.5,14.2,15.5z M14.1,15.5C14.1,15.5,14.1,15.5,14.1,15.5C14.1,15.5,14.1,15.5,14.1,15.5z M13.8,14.2
					C13.8,14.2,13.8,14.2,13.8,14.2C13.8,14.2,13.8,14.2,13.8,14.2z M11.7,14.9C11.7,14.9,11.7,14.9,11.7,14.9
					C11.7,14.9,11.7,14.9,11.7,14.9z"/>
				<path class="st10" d="M10.3,8.2c0,0-1.4-0.6-2.3-0.4l0-0.5c0,0,0.7-0.1,0.9-0.1C9.2,7.4,10.3,8,10.3,8V8.2z"/>
				<path class="st10" d="M6,7.4l0,0.4c0,0-0.6-0.3-0.8,0.3L5,7.7c0,0,0.1-0.3,0.5-0.4C5.8,7.3,6,7.4,6,7.4z"/>
				<g>
					<g>
						<g>
							<path class="st6" d="M6.1,9.9C6.1,9.9,6.1,9.9,6.1,9.9C6.1,9.9,6.1,9.9,6.1,9.9z"/>
							<path class="st6" d="M6.1,9.9C6.1,9.9,6.1,9.9,6.1,9.9C6.1,9.9,6.1,9.9,6.1,9.9C6.1,9.9,6.1,9.9,6.1,9.9
								C6.1,9.9,6.1,9.8,6.1,9.9c0.1-0.1,0.1-0.1,0.1-0.1c0,0,0,0,0.1-0.1c0,0,0,0,0-0.1c0.1-0.1,0.1-0.2,0.2-0.4
								c0,0-0.1-0.3-0.2-0.5C6.1,8.5,6,8.4,5.8,8.4c-0.2,0-0.3,0.1-0.4,0.3l0,0C5.3,9,5.2,9.2,5.2,9.2l0,0l0,0c0,0,0.1,0.2,0.3,0.4
								c0,0,0,0,0,0c0,0,0,0,0.1,0.1c0,0,0,0,0,0c0,0,0.1,0.1,0.1,0.1c0,0,0,0,0.1,0c0,0,0,0,0.1,0c0,0,0,0,0.1,0c0,0,0,0,0,0
								C5.9,9.9,6,9.9,6.1,9.9C6,9.9,6,9.9,6.1,9.9C6,9.9,6,9.9,6.1,9.9C6.1,9.9,6.1,9.9,6.1,9.9z M6.2,9.8C6.2,9.7,6.2,9.7,6.2,9.8
								C6.2,9.7,6.2,9.7,6.2,9.8z M6.3,9.6C6.3,9.6,6.3,9.6,6.3,9.6C6.3,9.6,6.3,9.6,6.3,9.6z M5.7,8.4C5.7,8.4,5.7,8.4,5.7,8.4
								C5.7,8.4,5.7,8.4,5.7,8.4z M5.8,9.9C5.8,9.9,5.8,9.9,5.8,9.9C5.8,9.9,5.8,9.9,5.8,9.9z"/>
						</g>
						<path class="st11" d="M5.5,9.5c0,0.1,0,0.2,0.1,0.3c0,0,0,0,0,0c0,0,0.1,0.1,0.1,0.1c0,0,0,0,0.1,0c0,0,0,0,0.1,0
							c0,0,0,0,0.1,0c0,0,0,0,0,0c0,0,0,0,0,0c0,0,0,0,0,0c0,0,0,0,0.1,0l0,0c0,0,0,0,0,0l0,0c0,0,0,0,0,0c0,0,0,0,0,0
							c0.1-0.1,0.1-0.3,0.1-0.5c0-0.3-0.2-0.6-0.4-0.5C5.6,8.8,5.4,9.1,5.5,9.5z"/>
						<path class="st12" d="M6,9.4c0,0.2,0,0.3-0.1,0.4c-0.1,0-0.2-0.1-0.2-0.3c0-0.2,0-0.3,0.1-0.4C5.9,9.1,6,9.2,6,9.4z"/>
						<path class="st13" d="M6.1,9.5c0,0.1,0.1,0.1,0.2,0.1c0.1,0,0.1-0.1,0-0.2c0-0.1-0.1-0.1-0.2-0.1C6.1,9.3,6.1,9.4,6.1,9.5z"/>
						<path class="st14" d="M6.4,9.3c0,0-0.2-1.2-0.8-1C5,8.4,5,8.9,5,8.9l0.2,0l0.4-0.3l0.2,0l0.2,0l0.1,0.1l0.1,0.2l0.1,0.2l0,0.1
							L6.4,9.3z"/>
						<path class="st15" d="M5,8.9l0.1,0.3c0,0,0.2-0.1,0.3-0.4C5.6,8.6,6.1,8.5,6.3,9c0,0.1,0.1,0.2,0.1,0.3c0,0-0.2-0.7-0.5-0.8
							C5.6,8.3,5.1,8.9,5,8.9z"/>
					</g>
					<path class="st14" d="M7.6,9.4c0,0-0.1-1.1,0.9-1.2c0.9-0.1,1.5,1,1.5,1L7.6,9.4z"/>
					<g>
						<path class="st6" d="M8.3,10C8.3,10,8.3,10,8.3,10C8.3,10,8.3,10,8.3,10z"/>
						<path class="st6" d="M8.3,10c0,0,0.1,0,0.1,0c0,0,0,0,0.1,0c0,0,0.1,0,0.1,0c0,0,0.1,0,0.1,0c0,0,0.1,0,0.1,0c0,0,0.1,0,0.1,0
							c0,0,0.1,0,0.1,0c0.1,0,0.1-0.1,0.2-0.1c0,0,0,0,0.1,0c0,0,0.1-0.1,0.1-0.1c0,0,0,0,0,0c0.3-0.2,0.5-0.5,0.5-0.5l0,0l0,0
							c0,0-0.3-0.2-0.6-0.5l0,0C9,8.5,8.8,8.4,8.5,8.5c-0.3,0-0.6,0.2-0.7,0.4C7.6,9.2,7.6,9.4,7.6,9.4c0.1,0.1,0.2,0.2,0.3,0.3
							c0,0,0,0,0.1,0.1c0,0,0.1,0,0.1,0.1c0,0,0.1,0,0.1,0C8.2,10,8.3,10,8.3,10C8.3,10,8.3,10,8.3,10C8.3,10,8.3,10,8.3,10
							C8.3,10,8.3,10,8.3,10C8.3,10,8.3,10,8.3,10z M8,9.9C8,9.9,8,9.9,8,9.9C8,9.9,8,9.9,8,9.9z M7.8,9.7C7.8,9.7,7.8,9.7,7.8,9.7
							C7.8,9.7,7.8,9.7,7.8,9.7z M8.7,8.5C8.7,8.5,8.7,8.5,8.7,8.5C8.7,8.5,8.7,8.5,8.7,8.5z M8.8,10C8.8,10,8.8,10,8.8,10
							C8.8,10,8.8,10,8.8,10z"/>
					</g>
					<path class="st11" d="M7.9,9.4c0,0.1,0,0.3,0.1,0.4c0,0,0.1,0,0.1,0.1c0,0,0.1,0,0.1,0c0,0,0.1,0,0.1,0h0c0,0,0,0,0,0
						c0,0,0.1,0,0.1,0c0,0,0,0,0.1,0c0,0,0.1,0,0.1,0c0,0,0.1,0,0.1,0c0,0,0.1,0,0.1,0c0,0,0.1,0,0.1,0c0,0,0,0,0.1,0
						c0.1-0.1,0.2-0.2,0.2-0.4c0-0.3-0.2-0.7-0.6-0.7C8.2,8.8,7.9,9.1,7.9,9.4z"/>
					<path class="st12" d="M8.2,9.4c0,0.2,0.1,0.4,0.3,0.4c0.2,0,0.4-0.1,0.4-0.3c0-0.2-0.1-0.4-0.3-0.4C8.3,9.1,8.2,9.3,8.2,9.4z"
						/>
					<path class="st15" d="M10,8.9L9.8,9.2c0,0-0.3-0.1-0.6-0.3C8.8,8.5,8,8.6,7.7,9.1c0,0.1-0.1,0.2-0.1,0.3c0,0,0.2-0.8,0.7-1
						C8.8,8.3,9.9,8.9,10,8.9z"/>
					<path class="st13" d="M8.9,9.5c0,0.1,0.1,0.1,0.2,0.1c0.1,0,0.1-0.1,0.1-0.2c0-0.1-0.1-0.1-0.2-0.1C8.9,9.3,8.9,9.4,8.9,9.5z"
						/>
				</g>
				<g>
					<g>
						<path class="st16" d="M6,11.2c0,0,0.1,0,0.1,0.1c0,0,0,0,0,0c0,0,0.1,0,0.1,0c0,0,0.1,0,0.1,0c0.1,0,0.2-0.1,0.2-0.1
							s0.2,0,0.3,0c0,0,0,0,0,0c0,0,0,0,0,0c0,0,0.1,0,0.1,0l0,0c0,0,0,0,0,0c0,0,0,0,0,0c0.1,0,0.2-0.1,0.3-0.3
							c0-0.1-0.1-0.2-0.1-0.3c0,0-0.1,0-0.1-0.1c0,0,0,0,0,0c0,0,0,0,0,0c-0.1-0.1-0.2-0.3-0.3-0.4c0,0.1-0.1,0.2-0.1,0.3
							c0.1,0.1,0.3,0.2,0.2,0.3c-0.1,0.2-0.8,0-1,0c0,0,0,0,0,0C5.8,11,5.9,11.1,6,11.2z"/>
						<path class="st17" d="M6.4,8.7c0,0,0.1,0.7-0.2,1.3c-0.4,0.7-0.5,0.7-0.4,0.9c0.1,0.2,0.3,0.3,0.3,0.3s-0.3-0.1-0.4-0.4
							C5.7,10.6,6.4,10,6.4,9.5C6.4,9,6.4,8.7,6.4,8.7z"/>
						<path class="st17" d="M7,10.7c0,0,0.3,0.1,0.2,0.4c-0.1,0.3-0.3,0.3-0.3,0.3s0.3,0.1,0.3-0.2C7.4,10.8,7.1,10.7,7,10.7z"/>
						<path class="st18" d="M6.9,11.3c0,0-0.1-0.3-0.4-0.1c-0.3,0.2,0,0.2,0.1,0.1C6.6,11.2,6.9,11.3,6.9,11.3z"/>
					</g>
					<path class="st19" d="M6.2,10.7c0,0,0,0.1,0.1,0.1s0.1,0,0.2-0.1c0,0,0-0.1-0.1-0.1C6.3,10.7,6.2,10.7,6.2,10.7z"/>
				</g>
				
					<linearGradient id="SVGID_4_" gradientUnits="userSpaceOnUse" x1="-437.3728" y1="2.9894" x2="-442.9955" y2="7.7879" gradientTransform="matrix(-1 0 0 1 -428.9116 0)">
					<stop  offset="7.297300e-02" style="stop-color:#5C2A25"/>
					<stop  offset="0.2507" style="stop-color:#552622"/>
					<stop  offset="0.9865" style="stop-color:#3D1917"/>
				</linearGradient>
				<path class="st20" d="M4.8,2.7c0.4-0.3,0.9-0.2,1.3-0.1c1-0.7,4-1.2,6.6,2.9c3.1,4.9,4.7,0.6,4.7,0.6c0,2.9-3.2,3.8-5.4,3.4
					C9.8,9.1,6.3,3.4,5.5,3.3c-0.8-0.1-0.7,1-0.7,1S4,3.4,4.8,2.7z"/>
			</g>
		</g>
	</g>
</g>
</svg>
