<!-- Generator: Adobe Illustrator 24.0.3, SVG Export Plug-In  -->
<svg version="1.1" xmlns="http://www.w3.org/2000/svg" xmlns:xlink="http://www.w3.org/1999/xlink" x="0px" y="0px" width="18.6px"
	 height="37.8px" viewBox="0 0 18.6 37.8" style="enable-background:new 0 0 18.6 37.8;" xml:space="preserve">
<style type="text/css">
	.st0{clip-path:url(#SVGID_2_);}
	.st1{fill:#6A2D1A;}
	.st2{fill:#702C0C;}
	.st3{fill:#431C0E;}
	.st4{fill:#FFA692;}
	.st5{fill:#FF6061;}
	.st6{fill:#592208;}
	.st7{fill:#FFC332;}
	.st8{fill:#E1A027;}
	.st9{fill:#D86D41;}
	.st10{fill:#BD5F37;}
	.st11{fill:#A0532C;}
	.st12{fill:#AD4F31;}
	.st13{fill:#FF8061;}
	.st14{fill:#82323B;}
	.st15{fill:#D75766;}
	.st16{fill:#FFFFFF;}
	.st17{fill:#913F39;}
	.st18{fill:#3F0100;}
	.st19{fill:#2F0415;}
	.st20{fill:#8B011C;}
	.st21{fill:#F25655;}
	.st22{fill:#561E1E;}
	.st23{clip-path:url(#SVGID_4_);}
</style>
<defs>
</defs>
<g>
	<g>
		<defs>
			<circle id="SVGID_1_" cx="9.3" cy="9.3" r="9.3"/>
		</defs>
		<use xlink:href="#SVGID_1_"  style="overflow:visible;fill:#FAE4D9;"/>
		<clipPath id="SVGID_2_">
			<use xlink:href="#SVGID_1_"  style="overflow:visible;"/>
		</clipPath>
		<g class="st0">
			<g>
				<path class="st1" d="M11.9,15.4c0,0-0.7-0.6-2-0.3c-1.3,0.3-1.9,0.5-2.5,0.7L7,17.2l5.6,0.2l-0.2-1.3L11.9,15.4z"/>
				<path class="st2" d="M4.4,34.5c4.9,1.8,9.5,0.1,9.5,0.1s-0.7-3.8-0.9-7.1c-0.2-3.3,1.9-6.6,1.9-8c0-0.9-1-1.9-1.7-2.6
					c-1,0.4-5.4,1.2-6.3,0c-0.8,0.5-1.2,1.2-1.2,1.2s0,0-0.6,1.5c-0.6,1.5-1.4,3.3-0.2,4.8C5.9,26,4.4,34.5,4.4,34.5z"/>
				<path class="st3" d="M6.9,16.9c0.9,1.2,5.3,0.4,6.3,0c-0.4-0.4-0.8-0.6-0.8-0.6s-3.3,0-4.6,0.3C7.4,16.6,7.1,16.8,6.9,16.9z"/>
				<g>
					<path class="st4" d="M7.8,16.5c1,0.5,4.6-0.3,4.6-0.3c-0.6-0.6-0.9-1.1-1-1.7c-0.5,0-1.3,0.2-2.4,0.6
						C8.6,16.1,7.8,16.5,7.8,16.5z"/>
					<path class="st5" d="M11.4,14.6c-0.3-1.1,0-1.9,0-2l-2.3,1.3c0.1,0.5,0,0.9-0.1,1.3C10,14.8,10.8,14.7,11.4,14.6z"/>
				</g>
				<path class="st6" d="M12.4,20.6c0,0-0.9,2.4-2.8,2.8C7.8,23.9,5,23.5,5,23.5v0.9c0,0,4.6-0.8,5.5,2.9L12.4,20.6z"/>
				<path class="st7" d="M11.9,15.4c0,0,0.7,0.5,0.1,2.3c-0.5,1.8-1.9,3.1-2.1,4.8c-0.1,1.8-0.5,10.6,0.5,15.2c0,0,3.3-1.1,4.6-2.1
					c0,0-2.3-10.1-0.2-16.1C14.9,19.6,15.5,18.5,11.9,15.4z"/>
				<path class="st7" d="M7.4,15.9c0,0-0.1,1.5-1,2.9c-0.9,1.4-1.1,2.2-1.1,2.4c-0.4,1.5,0.9,12.1-1,15.1l-1-1.1
					c0,0,1.2-3.9,1.3-5.6c0.1-1.7,0.7-4.3,0.1-5.1c-0.6-0.8-0.9-2.5-0.5-3.5s1.1-2.5,1.4-3.2C5.9,17.3,7.4,15.9,7.4,15.9z"/>
				<path class="st8" d="M10.2,36c0.1,0.6,0.2,1.2,0.3,1.7c0,0,3.3-1.1,4.6-2.1c0,0-2.3-10.1-0.2-16.1c0,0,0.1-0.3-0.2-0.9
					c-0.6,0.5-2,2.2-1.9,5.7C12.9,28.4,12.4,33.7,10.2,36z"/>
				<g>
					<g>
						<path class="st9" d="M11.3,30.2c0,0,0.2,1.7,0.5,3c0.4,0.4,0.9,0.6,1.7,0.4c1.7-0.5,0.8-4.1,0.8-4.1l0.1-0.1
							c0-0.1,0-0.1,0-0.1L11.3,30.2z"/>
						<path class="st10" d="M11.8,33.2c0.2,0.8,0.4,1.4,0.5,1.4c0.4-0.1,2.3-0.5,2.4-0.8c0.2-0.3-0.3-3.7-0.3-4.3l-0.1,0.1
							c0,0,1,3.7-0.8,4.1C12.8,33.8,12.2,33.6,11.8,33.2z"/>
					</g>
					<path class="st11" d="M14.8,29.5c0,0-1.5,1.1-3.8,1.1l-0.2-0.9c0,0,2.1-0.2,3.6-1L14.8,29.5z"/>
				</g>
				<g>
					<path class="st9" d="M3.7,33.2c0.7-1,1-3.4,1-3.4l0.1,0l-0.4-0.1C4.3,30.6,3.7,33.2,3.7,33.2z"/>
					<path class="st10" d="M3.7,33.2c0.1,0.1,0.5,0.3,0.5,0.3c0.5-0.7,0.6-3.7,0.6-3.7l0,0l-0.1,0C4.7,29.8,4.4,32.2,3.7,33.2z"/>
					<path class="st11" d="M5,29.4l-0.1,0.8c0,0-0.6-0.3-0.7-0.5L4.3,29C4.3,29,4.4,29.2,5,29.4z"/>
				</g>
				<path class="st12" d="M10.3,36.5C10.3,36.5,10.3,36.5,10.3,36.5c0,0.1,0,0.2,0,0.2c0,0,0,0.1,0,0.1c0,0,0,0.1,0,0.1
					c0,0,0,0.1,0,0.1c0,0,0,0.1,0,0.1c0,0.1,0,0.1,0,0.2c0,0,0,0,0,0.1c0,0.1,0,0.1,0,0.2c0,0,0,0,0,0c0,0.1,0,0.1,0,0.2
					c0,0,0.4-0.1,0.9-0.3c-0.9-4.5-0.7-12.1-0.7-13.9c0-1.9,1.2-3.2,2.3-5.1c0.3-0.6,0.4-1.2,0.3-1.7c-0.4-0.4-0.8-0.8-1.4-1.3
					c0.1,0.1,0.6,0.7,0.1,2.3c-0.5,1.8-1.9,3.1-2.1,4.8C9.9,24.2,9.6,31.7,10.3,36.5z"/>
				<path class="st12" d="M3.8,35.8l0.5,0.6c1.9-3.1,0.6-13.6,1-15.1c0.1-0.2,0.3-1,1.1-2.4c0.9-1.5,1-2.9,1-2.9S7,16.3,6.5,16.8
					c0,0.4-0.2,1.2-1.1,2.6c-1.3,2-1.2,3.6-0.9,4.8c0,0.2,0.1,0.3,0.1,0.5c0.1,0.4,0.2,1.5,0.2,2.9C4.8,30.1,4.6,33.7,3.8,35.8z"/>
			</g>
			<g>
				<path class="st13" d="M7.4,14.9c0.1,0.1,0.3,0.2,0.5,0.3c0.9,0.2,2.5-0.5,3.4-1.5c0.4-0.4,0.7-1.3,0.9-2.2c0,0-0.1,0-0.1,0
					c-0.1,0-0.1-0.1-0.1-0.1c-0.2,0.9-0.5,1.7-0.9,2.1c-1,1-2.6,1.7-3.4,1.5C7.5,15,7.4,14.9,7.4,14.9z"/>
				<path class="st4" d="M5.8,12C5.9,12.7,6.7,13.5,7,14c0.2,0.3,0.1,0.7,0.4,1c0.1,0,0.2,0.1,0.3,0.1c0.9,0.2,2.5-0.5,3.4-1.5
					c0.4-0.4,0.7-1.2,0.9-2.1c0,0,0.1,0.1,0.1,0.1c0,0,0.1,0,0.1,0c0.2-0.8,0.3-1.6,0.4-2.2c0.1-0.5,0.1-0.8,0.1-0.8
					c0-2-1.5-3.3-1.5-3.3c0,0,0,0-0.1,0c-1-0.2-4.1,0.2-4.6,0.8C6.1,6.7,5.7,7.7,5.7,8.3S5.9,9.8,6,10.4C6.1,11.1,5.7,11.3,5.8,12z"
					/>
				<path class="st14" d="M4.6,8.3C4.6,8.3,4,8.1,4.1,7.6c0.2-0.8,1.4-0.6,1.4-0.6C6.4,5.1,9.8,5,10.9,5.7c0.7,0.4,2.6,2,3.6,1
					c0.1-0.1,0.2-0.3,0.3-0.5c0.3-1-0.6-2.1-2.5-2.8c-1.4-0.6-2-1.6-2.2-2C9.9,1.2,9.5,1,8.8,1C8.7,1,8.6,1,8.5,1
					C8,1.2,6.7,1.7,6.6,2.7c0,0-2.7-0.6-2.6,1.5c0,0-0.4,0.1,0,1.3c0.3,1.2-0.2,1.2-0.2,1.2C3.4,8,4.5,8.3,4.6,8.3z"/>
				<path class="st13" d="M7.4,14.9c0.1,0.1,0.3,0.2,0.5,0.3c0.9,0.2,2.5-0.5,3.4-1.5c0.4-0.4,0.7-1.3,0.9-2.2c0,0-0.1,0-0.1,0
					c-0.1,0-0.1-0.1-0.1-0.1c-0.2,0.9-0.5,1.7-0.9,2.1c-1,1-2.6,1.7-3.4,1.5C7.5,15,7.4,14.9,7.4,14.9z"/>
				<path class="st15" d="M2.9,6.5c0.3,0.3,0.7,0.3,1,0.2c0,0,0.5-0.1,0.2-1.2c-0.3-1.2,0-1.3,0-1.3C3.9,2.1,6.6,2.7,6.6,2.7
					C6.7,1.7,8,1.2,8.5,1C6.9,1,6.4,1.9,6.2,2.4c0,0-0.1,0-0.1,0C3.9,2.2,3.8,3.7,3.8,4.2c0,0-0.1,0.1-0.1,0.1C3.2,5,3.9,5.4,3.9,6
					C3.9,6.6,2.9,6.5,2.9,6.5z"/>
				<g>
					<path class="st13" d="M10.7,9.6c0,0-0.5-0.4-1.2-0.3c-0.6,0.1-0.8,0.9-0.8,0.9s0-1.2,0.9-1.3C10.4,8.8,10.7,9.6,10.7,9.6z"/>
					<path class="st16" d="M10.7,9.6c0,0-0.7-0.8-1.3-0.4c-0.7,0.3-0.7,1-0.7,1s0.5,0.6,1.2,0.4C10.6,10.4,10.7,9.6,10.7,9.6z"/>
					<g>
						<path class="st17" d="M9,9.9c0,0.4,0.3,0.7,0.7,0.7c0.3,0,0.6-0.4,0.6-0.8c0-0.4-0.3-0.7-0.7-0.7C9.2,9.1,8.9,9.5,9,9.9z"/>
						<path class="st18" d="M9.3,9.8c0,0.2,0.2,0.3,0.3,0.3c0.2,0,0.3-0.2,0.3-0.4c0-0.2-0.2-0.3-0.3-0.3C9.4,9.5,9.3,9.7,9.3,9.8z"
							/>
					</g>
					<path class="st16" d="M10.4,9.8c0,0.2-0.1,0.3-0.3,0.3c-0.2,0-0.3-0.1-0.3-0.3c0-0.2,0.1-0.3,0.3-0.3
						C10.3,9.5,10.4,9.6,10.4,9.8z"/>
					<path class="st16" d="M7.2,10c0,0-0.2-0.8-0.7-0.8C6,9.2,6,9.6,6,9.6s0,0.8,0.5,0.9C7.1,10.7,7.2,10,7.2,10z"/>
					<g>
						<path class="st17" d="M6.1,9.9c0,0.3,0.2,0.6,0.5,0.6c0.2,0,0.4-0.3,0.4-0.6c0-0.3-0.2-0.6-0.5-0.6C6.3,9.3,6.1,9.5,6.1,9.9z"
							/>
						<path class="st18" d="M6.3,9.8c0,0.2,0.1,0.3,0.2,0.3c0.1,0,0.2-0.1,0.2-0.3c0-0.2-0.1-0.3-0.2-0.3C6.4,9.6,6.3,9.7,6.3,9.8z"
							/>
					</g>
					<path class="st16" d="M7.1,9.8c0,0.2-0.1,0.3-0.2,0.3c-0.1,0-0.2-0.1-0.2-0.3c0-0.2,0.1-0.3,0.2-0.3C7,9.5,7.1,9.7,7.1,9.8z"/>
					<path class="st13" d="M7.2,10c0,0-0.7-1.2-1.2-0.4C6,9.5,6,9,6.6,9C7.1,9.1,7.2,10,7.2,10z"/>
					<path class="st19" d="M8.7,10.2c0,0,0.2-0.8,0.8-0.9c0.7-0.1,1.2,0.3,1.2,0.3l0.2-0.2l-0.4-0.2C10.5,9.2,8.8,8.4,8.7,10.2z"/>
					<path class="st19" d="M7.2,10c0,0-0.7-1.2-1.2-0.4L5.9,9.4l0.1,0c0.1-0.1,0.2-0.1,0.3-0.1C6.6,9.1,7,9.2,7.2,10z"/>
					<g>
						<path class="st20" d="M7.1,12.7c0,0,0.3,1,1.1,0.9c0.6,0,0.9-0.4,1.1-0.8c0,0,0-0.1,0-0.1v0c0-0.1,0-0.1,0-0.2
							c0-0.1,0-0.2,0-0.2c0,0-0.6,0.7-2.1,0.5c0,0,0,0-0.1,0C7.2,12.7,7.1,12.7,7.1,12.7z"/>
						<path class="st16" d="M7.3,12.7c0.1,0.2,0.2,0.4,0.5,0.4c0.6,0.1,1.2-0.2,1.6-0.4c0-0.1,0-0.1,0-0.2c0-0.1,0-0.2,0-0.2
							C9.4,12.2,8.7,12.9,7.3,12.7z"/>
					</g>
					<g>
						<path class="st13" d="M8,11.2c0,0,0,0.2-0.1,0.2c-0.1,0-0.8,0.1-0.8,0c0,0-0.1,0.2,0.1,0.3c0.2,0.1,0.6,0.1,0.6,0.1l0.7-0.2
							l0.1-0.2l-0.2-0.1L8,11.2z"/>
						<g>
							<path class="st21" d="M7.5,11.8c0.3,0,0.6-0.1,0.7-0.1c0.1,0,0.4-0.1,0.5-0.3c0,0,0-0.1-0.1-0.2c-0.3-0.2-0.5,0-0.5,0
								l0.1,0.1c0,0,0.2-0.1,0.4,0c0,0,0,0,0,0.1c0,0.1-0.2,0.2-0.4,0.2c-0.2,0.1-0.9,0.2-1,0C7,11.2,7.3,9.7,7.5,9.1l-0.1,0
								C7.3,9.3,6.9,11.2,7,11.6C7.1,11.7,7.3,11.8,7.5,11.8z"/>
						</g>
					</g>
				</g>
				<path class="st22" d="M9.4,8.5c0.1,0,0.6,0.1,0.8,0.1c0.3,0.1,0.7,0.2,0.7,0C11,8.4,8.7,7.5,8.7,8C8.6,8.4,8.9,8.5,9.4,8.5z"/>
				<path class="st22" d="M7,8.4c0,0,0.3-0.5-0.1-0.5c-0.4,0-1.1,0.5-1,0.7C5.8,8.8,6.8,8.6,7,8.4z"/>
				<path class="st22" d="M5.5,6.9c0.8-1.8,4.1-2,5.4-1.3c0.7,0.4,2.6,2,3.6,1c0.1-0.1,0.2-0.3,0.3-0.5c0.3-1-0.6-2.1-2.5-2.8
					c-1.4-0.6-2-1.6-2.2-2c0.9,0.5,1,1.4,3.2,1.8c0.7,0.1,1.1,0.3,1.4,0.6c1.1,1,0.4,2.8,0.8,3.8c0.5,1.2-0.2,1.9-1,2.7
					c-0.8,0.8-0.6,1.6-1.4,2.3c-0.8,0.7-0.5,1.2-0.4,1.2c0,0-0.3-0.2-0.3-0.6c-0.1,0.1-0.3,0.4-0.5,0.5C11.5,14,11,14,11,14
					s0.2-0.3,0.5-0.9c0.3-0.6,0.7-2.4,0.6-3.2c0,0,0-0.9-0.7-1.1c-0.7-0.2-0.6-0.5-0.6-1.2s0.2-1.1-0.9-1c-1.1,0-3.3,0-3.9,0.6
					C5.5,7.9,6.6,9.1,6.7,9.1C6.6,9.1,5.1,8.1,5.5,6.9z"/>
				<g>
					<g>
						<path class="st4" d="M11.9,11.4c0.1,0.1,0.1,0.1,0.2,0.1c0.1,0.1,0.2,0.1,0.3,0.1c0,0,0.1,0,0.1,0c0.4,0,0.7-0.2,0.9-0.5
							c0.4-0.4,0.5-1,0.3-1.5c-0.2-0.4-0.5-0.5-1-0.4c0,0,0,0,0,0c-0.2,0.1-0.4,0.2-0.6,0.4c-0.3,0.3-0.5,0.6-0.5,1
							C11.6,11,11.7,11.2,11.9,11.4z"/>
					</g>
					<path class="st13" d="M12.9,9.7c0,0,0.4-0.1,0.3,0c-0.1,0.2-0.5,0-0.8,0.6c0,0,0.4,0.1,0.3,0.5c-0.1,0.3-0.6,0.2-0.6,0.2
						s0.4,0,0.4-0.2s-0.4-0.2-0.5-0.2C12.1,10.5,12.4,9.8,12.9,9.7z"/>
				</g>
			</g>
		</g>
	</g>
</g>
</svg>
