<!-- Generator: Adobe Illustrator 24.0.3, SVG Export Plug-In  -->
<svg version="1.1" xmlns="http://www.w3.org/2000/svg" xmlns:xlink="http://www.w3.org/1999/xlink" x="0px" y="0px" width="18.6px"
	 height="30.5px" viewBox="0 0 18.6 30.5" style="enable-background:new 0 0 18.6 30.5;" xml:space="preserve">
<style type="text/css">
	.st0{clip-path:url(#SVGID_2_);}
	.st1{fill:#00DABD;}
	.st2{fill:#00917F;}
	.st3{fill:#FFAE78;}
	.st4{fill:url(#SVGID_3_);}
	.st5{fill:#00BDA3;}
	.st6{fill:#FF2898;}
	.st7{fill:#300000;}
	.st8{fill:#C65C0A;}
	.st9{fill:#520000;}
	.st10{fill:#280000;}
	.st11{fill:#6C0000;}
	.st12{fill:#471821;}
	.st13{fill:#8B011C;}
	.st14{fill:#FFFFFF;}
	.st15{fill:#ECECEC;}
	.st16{fill:#913F39;}
	.st17{fill:#3F0100;}
	.st18{fill:#FF8035;}
	.st19{fill:#FF6E0F;}
	.st20{clip-path:url(#SVGID_5_);}
	.st21{fill:url(#SVGID_6_);}
</style>
<defs>
</defs>
<g>
	<g>
		<defs>
			<circle id="SVGID_1_" cx="9.3" cy="9.3" r="9.3"/>
		</defs>
		<use xlink:href="#SVGID_1_"  style="overflow:visible;fill:#FAE4D9;"/>
		<clipPath id="SVGID_2_">
			<use xlink:href="#SVGID_1_"  style="overflow:visible;"/>
		</clipPath>
		<g class="st0">
			<g>
				<path class="st1" d="M5.9,29.2c1,0.6,2,1,2.9,1.2c0.8,0,2.6-0.1,3.4-0.7c1-0.7-0.1-1.5,0-1.9c0.1-0.5,1-1.2,0.7-2.2
					c-0.3-1-0.6-2.7,0.1-3.3c0.7-0.6-0.5-0.6,0.4-1.9c0.8-1,1.7-2.9,2-3.4c-0.3-0.7-1.5-1.1-2.2-1.3l-0.1,0.1
					c-0.2,0.5-1,1.8-2.7,2.7L10,18.6l-0.3-0.2c-0.1,0-1.3-1-1.7-2.4c-0.9,0.4-1.4,0.8-1.4,1.2c-0.2,0.8,0.4,5.6,0.6,6.2
					s-0.6,2.6-0.6,3C6.6,26.8,5.9,29.2,5.9,29.2z"/>
				<path class="st2" d="M7.9,16c0.5,1.4,1.7,2.4,1.7,2.4l0.3,0.2l0.4-0.2c1.7-0.9,2.5-2.2,2.7-2.7l0.1-0.1
					c-0.3-0.1-0.5-0.1-0.5-0.1c-0.1,0-0.1,0-0.2,0c-0.2,0.5-0.9,1.6-2.4,2.4c0,0-1.1-0.9-1.5-2.1C8.3,15.8,8.1,15.9,7.9,16z"/>
				<path class="st3" d="M8.5,15.8C8.9,17,10,17.9,10,17.9c1.5-0.8,2.2-1.9,2.4-2.4C10.9,15.2,9.6,15.4,8.5,15.8z"/>
				
					<linearGradient id="SVGID_3_" gradientUnits="userSpaceOnUse" x1="-131.7825" y1="12.7365" x2="-131.7825" y2="15.8745" gradientTransform="matrix(-1 0 0 1 -121.4572 0)">
					<stop  offset="7.674420e-02" style="stop-color:#FF7300"/>
					<stop  offset="0.9512" style="stop-color:#FFAE78"/>
				</linearGradient>
				<path class="st4" d="M9.1,15.3c0.4-0.9,0.2-2.8,0.2-2.8l1.8,0.1c0.1,1.3,0.4,2.1,0.5,2.4c0.2,0.3,0.3,0.4,0.3,0.4l-1.7,1.4
					l-1.5-1C8.9,15.7,9,15.5,9.1,15.3z"/>
				<path class="st5" d="M8.8,30.3c2.8,0.5,5.4-0.5,5.4-0.5s-0.2-2.6,0-3c0.2-0.4-0.1-1.7-0.2-2.3c-0.1-0.6,1.5-6.3,1.5-7.4
					c0-0.1,0-0.1,0-0.2c-0.3,0.5-1.2,2.4-2,3.4c-0.9,1.2,0.3,1.3-0.4,1.9c-0.7,0.6-0.4,2.3-0.1,3.3c0.3,1-0.6,1.7-0.7,2.2
					c-0.1,0.5,1.1,1.3,0,1.9C11.4,30.2,9.5,30.3,8.8,30.3z"/>
				<g>
					<path class="st6" d="M10.5,24.1h-0.3v0.1C10.4,24.1,10.5,24.1,10.5,24.1z"/>
					<path class="st6" d="M9.1,24.1c0.2,0.1,0.5,0.1,0.7,0.1c0,0,0.1,0,0.1,0c0,0,0,0,0,0c0,0,0,0,0-0.1l0,0H9.1z"/>
					<path class="st6" d="M10.3,23.8c0,0,0,0.1,0,0.1h0.6c0.1,0,0.1-0.1,0.2-0.1H10.3z"/>
					<path class="st6" d="M8.5,23.8c0.1,0,0.1,0.1,0.2,0.1h1.1v0l0-0.1l0,0l0,0H8.5z"/>
					<path class="st6" d="M11.5,23.5h-1.2c0,0,0,0.1,0,0.1h1C11.4,23.6,11.4,23.6,11.5,23.5z"/>
					<path class="st6" d="M8.1,23.5c0.1,0.1,0.1,0.1,0.2,0.1h1.6v0l0-0.1c0,0,0,0,0,0l0,0c0,0,0,0,0,0c0,0,0,0,0,0c0,0,0,0,0,0l0,0
						v0H8.1z"/>
					<path class="st6" d="M11.8,23.1h-1.5l0,0.1h1.4C11.7,23.2,11.7,23.2,11.8,23.1z"/>
					<path class="st6" d="M7.9,23.1c0,0,0.1,0.1,0.1,0.1h1.9v0c0,0,0,0,0,0c0,0,0,0,0,0c0,0,0,0,0,0l0,0l0-0.1c0,0,0,0,0,0l0,0H7.9z
						"/>
					<path class="st6" d="M12,22.7h-1.7c0,0,0,0.1,0,0.1h1.6C11.9,22.8,11.9,22.8,12,22.7z"/>
					<path class="st6" d="M7.7,22.7c0,0,0,0.1,0.1,0.1h2l0,0c0,0,0,0,0-0.1l0,0c0,0,0,0,0,0c0,0,0,0,0,0c0,0,0,0,0,0v0l0,0H7.7z"/>
					<path class="st6" d="M12.1,22.3h-1.9c0,0,0,0.1,0,0.1c0,0,0,0,0,0.1h1.8C12.1,22.4,12.1,22.4,12.1,22.3z"/>
					<path class="st6" d="M10.1,20.6L10.1,20.6C10.1,20.7,10.1,20.7,10.1,20.6C10.1,20.7,10.1,20.6,10.1,20.6z"/>
					<path class="st6" d="M10.1,21.1L10.1,21.1C10.1,21.2,10.1,21.2,10.1,21.1L10.1,21.1z"/>
					<path class="st6" d="M9.5,20.8L9.5,20.8C9.6,20.8,9.6,20.8,9.5,20.8C9.6,20.8,9.6,20.8,9.5,20.8C9.6,20.8,9.6,20.8,9.5,20.8
						C9.6,20.8,9.6,20.8,9.5,20.8L9.5,20.8z"/>
					<path class="st6" d="M9.7,21c-0.1,0-0.1,0-0.1,0.1l0-0.1c0,0,0,0,0,0l0,0.1c0,0-0.1,0.1-0.1,0.1c0.1,0,0.2,0,0.3,0l-0.1,0.1
						c0,0,0.1,0,0.1-0.1C9.7,21.1,9.7,21,9.7,21z"/>
					<path class="st6" d="M9.3,21.1L9.3,21.1C9.3,21.2,9.3,21.2,9.3,21.1L9.3,21.1C9.3,21.1,9.3,21.1,9.3,21.1z"/>
					<path class="st6" d="M9.3,21.5c-0.1,0-0.1-0.1-0.1-0.1C9.2,21.5,9.3,21.5,9.3,21.5C9.3,21.5,9.3,21.5,9.3,21.5
						C9.3,21.5,9.3,21.5,9.3,21.5C9.3,21.5,9.3,21.5,9.3,21.5C9.3,21.5,9.3,21.6,9.3,21.5L9.3,21.5L9.3,21.5l0.1,0.1l0,0
						c0,0,0,0,0,0l0,0l0,0c0,0,0,0,0,0c0,0,0,0,0,0c0,0,0,0,0,0l0,0l0,0l0,0l0,0l0,0l0,0c0,0,0,0,0,0c0,0,0,0,0,0c0,0,0,0,0,0h0.2
						c0-0.1,0-0.2-0.1-0.3c0,0,0,0,0,0c-0.1,0-0.1-0.1-0.1-0.1l0,0.1C9.6,21.6,9.5,21.6,9.3,21.5C9.4,21.5,9.4,21.5,9.3,21.5
						c0,0,0-0.1,0-0.1L9.3,21.5z"/>
					<path class="st6" d="M9.1,21.4C9.1,21.4,9.1,21.4,9.1,21.4L9.1,21.4C9.1,21.4,9.1,21.4,9.1,21.4C9.1,21.4,9.1,21.4,9.1,21.4z"
						/>
					<path class="st6" d="M8.2,22h0.9c0,0,0-0.1,0-0.1c0-0.1,0.1-0.1,0.1-0.1L9,21.8C9,21.7,9,21.6,9,21.4c0,0.1,0,0.1-0.1,0.2
						c0,0,0,0,0,0l-0.1-0.1l0,0.1c0,0-0.1,0-0.1,0.1l0-0.1l0,0.2c-0.1,0-0.1,0-0.2,0.1c0,0,0-0.1,0-0.1l0,0.1
						C8.3,21.9,8.3,21.9,8.2,22z"/>
					<path class="st6" d="M7.5,21.9C7.5,21.9,7.5,21.9,7.5,21.9L8.2,22c0-0.1,0-0.3,0.2-0.6c0,0,0,0,0.1-0.1l0.1,0l0,0
						c0,0,0,0,0.1,0c0,0-0.1,0-0.1,0c0,0,0,0,0-0.1c0,0,0,0-0.1,0.1c-0.1,0-0.1,0-0.2,0c0,0,0-0.1,0.1-0.1c0,0-0.1,0.1-0.1,0.1
						c-0.2,0-0.3-0.1-0.3-0.1c0,0,0,0,0,0C8,21,8.1,21,8.2,20.9c0,0,0.1,0,0.1,0c0,0-0.1,0-0.1-0.1c0.1,0,0.3,0,0.4,0
						c0,0,0,0.1,0,0.1c0,0,0,0,0-0.1c0.1,0.1,0.2,0.1,0.2,0.2c0-0.1,0.1-0.2,0.1-0.2c0,0,0-0.1,0.1-0.1c0,0,0-0.1,0-0.1l0.1,0
						l-0.1,0c0,0,0.1-0.1,0.1-0.1c0,0-0.1,0-0.1,0c0,0,0,0,0-0.1c0,0-0.1,0-0.1,0.1c-0.1,0-0.1,0-0.2,0c0,0,0-0.1,0.1-0.1
						c-0.1,0-0.1,0.1-0.2,0.1c-0.2,0-0.3,0-0.3,0c0,0,0,0,0,0c0.1-0.1,0.2-0.2,0.3-0.3c0.1,0,0.1,0,0.2,0c0,0-0.1,0-0.1,0
						c0.1-0.1,0.3-0.1,0.4,0c0,0,0,0.1,0.1,0.1c0,0,0,0,0-0.1c0.1,0,0.2,0.1,0.3,0.2c0-0.1,0.1-0.2,0.2-0.3l0.2,0l-0.1,0
						c0,0,0,0,0,0c0.4-0.2,0.7,0,0.7,0c-0.1,0-0.2,0.1-0.3,0.1l-0.1-0.1l0,0.1c-0.1,0-0.1,0.1-0.1,0.1L10,20.2l0,0.2
						c0.1,0,0.3,0,0.4,0.1l-0.1,0.1c0,0,0.1,0,0.2,0c0.1,0.1,0.2,0.2,0.3,0.4c0,0-0.1,0.1-0.3,0.1c0,0,0,0,0,0
						c-0.1-0.1-0.1-0.1-0.1-0.1l0,0.1c-0.1,0-0.2,0-0.3-0.1c0,0,0,0.1,0,0.1l0,0l0.1,0c0,0.1,0,0.3,0,0.5c0,0-0.1,0-0.2-0.2
						c0,0,0,0.1,0,0.1c0,0.2,0.1,0.4,0.1,0.5h1.9c0,0,0,0,0-0.1c0-1.3-1-2.3-2.3-2.3C8.5,19.6,7.5,20.6,7.5,21.9z"/>
					<path class="st6" d="M9.3,22.3L9.3,22.3h0.3c0,0,0,0,0,0c0,0,0,0,0,0h0l0,0l0,0l0,0l0,0c0,0,0,0,0,0l0,0H7.6c0-0.1,0-0.1,0-0.2
						H9.3z"/>
					<path class="st6" d="M10.1,20.7C10.1,20.7,10.1,20.7,10.1,20.7L10.1,20.7C10.1,20.6,10.1,20.7,10.1,20.7z M10.1,21.2L10.1,21.2
						L10.1,21.2C10.1,21.2,10.1,21.2,10.1,21.2z M9.6,20.8C9.6,20.8,9.6,20.8,9.6,20.8L9.6,20.8L9.6,20.8
						C9.6,20.8,9.6,20.8,9.6,20.8C9.6,20.8,9.6,20.8,9.6,20.8C9.6,20.8,9.6,20.8,9.6,20.8z M9.4,21.1C9.4,21.1,9.4,21.1,9.4,21.1
						L9.5,21c0,0,0,0,0,0l0,0.1c0,0,0.1-0.1,0.1-0.1c0,0.1,0,0.2,0.1,0.3c-0.1,0-0.1,0-0.1,0.1l0.1-0.1C9.6,21.1,9.5,21.1,9.4,21.1z
						 M9.3,21.1C9.3,21.1,9.3,21.1,9.3,21.1L9.3,21.1C9.3,21.2,9.3,21.2,9.3,21.1L9.3,21.1z M9.1,21.4C9.1,21.4,9.1,21.4,9.1,21.4
						C9.1,21.4,9.1,21.4,9.1,21.4L9.1,21.4C9.1,21.4,9.1,21.4,9.1,21.4z"/>
				</g>
			</g>
			<g>
				<path class="st7" d="M12.5,10.5l-0.3-0.1c0,0.2,0,0.4,0,0.4l0.2,0C12.4,10.7,12.5,10.6,12.5,10.5z"/>
				<g>
					<g>
						<path class="st8" d="M7.8,15.3c0.7,0.1,1.7-0.2,2.7-0.9c0.6-0.4,1.1-1.1,1.5-1.9c0,0,0-0.1-0.1-0.1c-0.1-0.2-0.1-0.3-0.1-0.6
							c0-0.1,0-0.1,0-0.2c-0.4,1.1-1,2.3-1.8,2.8C9.1,14.9,8.4,15.2,7.8,15.3z"/>
						<path class="st3" d="M5.3,11c-0.1,1.1,0.7,2.6,1.4,3.6c0.3,0.4,0.6,0.6,1,0.7c0.6-0.1,1.4-0.4,2.2-0.9
							c0.8-0.5,1.4-1.7,1.8-2.8c0,0.1,0,0.1,0,0.2c0,0.2,0.1,0.4,0.1,0.6c0,0,0,0.1,0.1,0.1c0.5-0.9,0.8-2,0.9-2.6
							C13,9.3,13.1,9,13.1,9c0.1-2.4-0.8-3.3-1.2-4.2c-0.2-0.4-1.1-0.5-2.1-0.5c-1.2,0-2.7,0.4-3.2,0.9c-1,0.9-1.4,2.3-1.5,3.4
							C5.1,9.8,5.4,10.4,5.3,11z"/>
					</g>
					<path class="st9" d="M4.4,4.5c0.3,0,0.7-0.1,1.4-0.2c0,0-1.1,0.6-0.9,1C5,5.5,6.6,5,6.6,5s0.1,1.3,1.5,0.6
						c1.4-0.7,1.7-1.1,1.7-1.1s0.1,0.5-0.1,1.1c0.7,0.3,1.4,0.6,1.8,1.1c0.3-0.7,0.1-1.5,0.1-1.5c0.6-0.6,0.2-1.4,0.2-1.7
						c-0.2-0.5-0.5-1.1-1.2-1.1c-0.4,0-0.5,0.2-0.5,0.5C9.2,2.4,7.7,1.4,6.9,1.7C6.3,2,6.7,2.6,7.1,3c-1,0-2.2,0.2-3,0.7
						C3.3,4.1,3.7,4.4,4.4,4.5z"/>
					<path class="st10" d="M11.9,7.4c0.4,1.4,0.1,3.1,0.1,3.1l1-0.1c0,0,0.4-2.9,1.7-3.8c0,0,0.4-0.9-0.4-0.8
						c-0.3,0-0.6,0.2-0.8,0.4c0-0.4,0.2-0.9,0.4-1.3c0.1-0.1,0-0.3-0.2-0.3c-0.2,0-0.5,0.2-0.7,0.3c0-0.6-0.1-1.6-0.7-1.7
						c-0.4-0.1-0.4,0.1-0.5,0.5c-0.1,0.3,0.4,1.1-0.2,1.7c0,0,0.2,0.8-0.1,1.5C11.7,7,11.8,7.2,11.9,7.4z"/>
					<g>
						<g>
							<path class="st3" d="M11.5,11.3c0,0.2,0,0.4,0,0.6c0,0.1,0.1,0.2,0.2,0.3c0,0,0,0.1,0.1,0.1c0,0,0.1,0.1,0.1,0.1
								c0.1,0.1,0.2,0.1,0.4,0.1c0,0,0.1,0,0.1,0c0.4,0,0.8-0.2,1.1-0.5c0.5-0.5,0.8-1.2,0.6-1.8c-0.2-0.5-0.5-0.7-1.1-0.6
								c0,0,0,0-0.1,0c0,0-0.1,0-0.1,0c-0.2,0.1-0.4,0.2-0.5,0.3c0,0-0.1,0-0.1,0.1C11.8,10.4,11.6,10.8,11.5,11.3z"/>
						</g>
						<path class="st8" d="M13.1,10.2c0,0,0.5-0.1,0.4,0.1c-0.1,0.2-0.6,0-0.9,0.7c0,0,0.4,0.2,0.2,0.6c-0.2,0.4-0.7,0.2-0.7,0.2
							c0-0.1,0.5,0.1,0.5-0.3c0-0.3-0.5-0.3-0.5-0.4C12,11.2,12.4,10.3,13.1,10.2z"/>
					</g>
					<path class="st11" d="M5.3,6.1c-0.1,0.4,0,0.9,0.4,0.8C6.2,6.8,6.5,6.4,6.7,6c0.2,0.4,0.5,0.9,1,0.5c0.5-0.4,0.9-0.8,1.2-1.1
						c0.2,0.1,0.5,0.2,0.8,0.3c0.2-0.6,0.1-1.1,0.1-1.1S9.5,4.9,8.1,5.6C6.7,6.3,6.6,5,6.6,5S5,5.5,4.8,5.2c-0.2-0.3,0.9-1,0.9-1
						C5.1,4.4,4.6,4.5,4.4,4.5c0.2,0,0.3,0.1,0.5,0.1C4.2,4.9,3.6,5.4,3.5,5.9C3.4,6.8,4.7,6.4,5.3,6.1z"/>
				</g>
				<g>
					<g>
						<path class="st12" d="M6.5,8.3c0,0,0.1,0.3,0,0.4C6.4,8.8,5.6,8.8,5.4,8.8C5.2,8.9,5.1,9,5.1,8.9c0,0-0.1-0.3,0-0.4
							c0.1-0.1,0.1-0.1,0.1-0.1S6.4,8.1,6.5,8.3z"/>
						<path class="st12" d="M10.3,8.5c0,0,0,0.4-0.1,0.4c-0.1,0-0.6-0.1-1-0.1c-0.5,0-1.2,0-1.3-0.1c-0.2-0.1,0-0.5,0-0.5
							c0.1,0,0.1,0,0.1,0S9.4,8.1,10.3,8.5z"/>
					</g>
					<g>
						<g>
							<g>
								<path class="st13" d="M6.9,12.6c0,0,0.2,0.9,1,0.9c0.5,0,0.8-0.4,1-0.7c0,0,0-0.1,0-0.1v0c0-0.1,0-0.1,0-0.2
									c0-0.1,0-0.2,0-0.2c0,0-0.6,0.6-1.9,0.4C7,12.6,7,12.6,6.9,12.6C7,12.6,6.9,12.6,6.9,12.6z"/>
								<path class="st14" d="M7.1,12.7C7.1,12.8,7.2,13,7.5,13c0.6,0.1,1.1-0.2,1.4-0.4c0-0.1,0-0.1,0-0.2c0-0.1,0-0.2,0-0.2
									C9,12.2,8.4,12.8,7.1,12.7z"/>
							</g>
							<g>
								<g>
									<path class="st15" d="M9.9,9.4c0,0-0.6-0.3-1.2-0.1C8.1,9.5,8,9.7,8,9.7s0.5,0.2,1,0.2C9.5,9.9,9.9,9.4,9.9,9.4z"/>
									<g>
										<g>
											<path class="st16" d="M8.5,9.4c0,0.2,0.2,0.4,0.4,0.5c0.2,0,0.4-0.1,0.5-0.4c0-0.2-0.2-0.4-0.4-0.5
												C8.7,9,8.5,9.2,8.5,9.4z"/>
											<path class="st17" d="M8.7,9.5c0,0.1,0.1,0.2,0.2,0.2c0.1,0,0.2-0.1,0.2-0.2c0-0.1-0.1-0.2-0.2-0.2
												C8.8,9.3,8.7,9.4,8.7,9.5z"/>
										</g>
										<path class="st14" d="M9.5,9.5c0,0.1-0.1,0.2-0.2,0.2c-0.1,0-0.2-0.1-0.2-0.2c0-0.1,0.1-0.2,0.2-0.2
											C9.4,9.3,9.5,9.4,9.5,9.5z"/>
									</g>
									<path class="st18" d="M8.1,9.7c0-0.1,0.2-0.3,0.6-0.4c0.5-0.2,1.2,0.1,1.2,0.1c0,0-0.3-0.3-0.8-0.4C8.4,9,8.1,9.6,8.1,9.7z
										"/>
									<path class="st15" d="M8,9.7C8,9.7,8.1,9.7,8,9.7C8.1,9.7,8,9.7,8,9.7z"/>
								</g>
								<g>
									<path class="st15" d="M5.3,9.4c0,0,0.5-0.4,0.9-0.2c0.4,0.2,0.5,0.4,0.5,0.4S6.4,9.9,6,9.9C5.7,9.9,5.3,9.4,5.3,9.4z"/>
									<g>
										<g>
											<path class="st16" d="M6.4,9.4c0,0.2-0.1,0.4-0.3,0.5C6,9.9,5.8,9.7,5.8,9.5C5.7,9.3,5.9,9.1,6,9C6.2,9,6.4,9.2,6.4,9.4z
												"/>
											<path class="st17" d="M6.2,9.4c0,0.1,0,0.2-0.1,0.2C6,9.7,5.9,9.6,5.9,9.5c0-0.1,0-0.2,0.1-0.2C6.1,9.2,6.2,9.3,6.2,9.4z
												"/>
										</g>
										<path class="st14" d="M6.3,9.5c0,0.1,0.1,0.2,0.2,0.2c0.1,0,0.1-0.1,0.1-0.2c0-0.1-0.1-0.2-0.2-0.2
											C6.3,9.3,6.2,9.4,6.3,9.5z"/>
									</g>
									<path class="st18" d="M6.7,9.6c0-0.1-0.2-0.3-0.5-0.4C5.8,9,5.3,9.4,5.3,9.4c0,0,0.2-0.3,0.6-0.4C6.4,8.9,6.7,9.5,6.7,9.6z
										"/>
								</g>
							</g>
						</g>
					</g>
				</g>
				<g>
					<path class="st19" d="M7.5,11c0,0-0.1,0.1-0.1,0.2c0,0.1-0.9,0.3-1,0.1l0,0.2l0.2,0.2l0.2,0l0.4,0l0.2-0.1c0,0,0.2,0,0.2,0
						c0,0,0.1,0,0.1,0l0.2-0.1l0-0.2l-0.1-0.2L7.5,11z"/>
					<g>
						<path class="st8" d="M6.7,11.8c0.2,0,0.5,0,0.6-0.1c0.1,0,0.1,0,0.2,0c0.1,0,0.2,0,0.3,0c0,0,0.1-0.1,0.1-0.2
							c0-0.1-0.1-0.2-0.1-0.3c-0.1-0.1-0.3,0-0.3,0l0,0.1l0-0.1l0,0.1c0,0,0.1,0,0.2,0c0.1,0,0.1,0.1,0.1,0.2c0,0.1,0,0.1,0,0.1
							c0,0-0.1,0-0.2,0c-0.1,0-0.2,0-0.3,0c-0.2,0.1-0.6,0.2-0.8,0.1c-0.1-0.1-0.2-0.4,0-0.7c0.4-0.6,0.2-1.5,0.2-1.6l-0.1,0
							c0,0,0.1,0.9-0.2,1.5c-0.2,0.4-0.1,0.8,0.1,0.9C6.5,11.7,6.6,11.8,6.7,11.8z"/>
					</g>
				</g>
			</g>
		</g>
	</g>
</g>
</svg>
